  0
SECTION
  2
BLOCKS
  0
ENDSEC
  0
SECTION
  2
ENTITIES
  0
LINE
  8
0
 10
4
 20
11
 11
-4
 21
11
  0
LINE
  8
0
 10
-4
 20
11
 11
-4
 21
-4
  0
LINE
  8
0
 10
-4
 20
-4
 11
4
 21
-4
  0
LINE
  8
0
 10
4
 20
-4
 11
4
 21
11
  0
LINE
  8
0
 10
-0.0523529
 20
-2.99954
 11
-0.104691
 21
-2.99817
  0
LINE
  8
0
 10
-0.104691
 20
-2.99817
 11
-0.156998
 21
-2.99588
  0
LINE
  8
0
 10
-0.156998
 20
-2.99588
 11
-0.209259
 21
-2.99269
  0
LINE
  8
0
 10
-0.209259
 20
-2.99269
 11
-0.261459
 21
-2.98857
  0
LINE
  8
0
 10
-0.261459
 20
-2.98857
 11
-0.313583
 21
-2.98355
  0
LINE
  8
0
 10
-0.313583
 20
-2.98355
 11
-0.365601
 21
-2.97763
  0
LINE
  8
0
 10
-0.365601
 20
-2.97763
 11
-0.417511
 21
-2.97079
  0
LINE
  8
0
 10
-0.417511
 20
-2.97079
 11
-0.469299
 21
-2.96306
  0
LINE
  8
0
 10
-0.469299
 20
-2.96306
 11
-0.520935
 21
-2.95442
  0
LINE
  8
0
 10
-0.520935
 20
-2.95442
 11
-0.572418
 21
-2.94487
  0
LINE
  8
0
 10
-0.572418
 20
-2.94487
 11
-0.623734
 21
-2.93443
  0
LINE
  8
0
 10
-0.623734
 20
-2.93443
 11
-0.67485
 21
-2.9231
  0
LINE
  8
0
 10
-0.67485
 20
-2.9231
 11
-0.725754
 21
-2.91087
  0
LINE
  8
0
 10
-0.725754
 20
-2.91087
 11
-0.776443
 21
-2.89777
  0
LINE
  8
0
 10
-0.776443
 20
-2.89777
 11
-0.826904
 21
-2.88377
  0
LINE
  8
0
 10
-0.826904
 20
-2.88377
 11
-0.877106
 21
-2.86891
  0
LINE
  8
0
 10
-0.877106
 20
-2.86891
 11
-0.927048
 21
-2.85316
  0
LINE
  8
0
 10
-0.927048
 20
-2.85316
 11
-0.9767
 21
-2.83655
  0
LINE
  8
0
 10
-0.9767
 20
-2.83655
 11
-1.02605
 21
-2.81908
  0
LINE
  8
0
 10
-1.02605
 20
-2.81908
 11
-1.0751
 21
-2.80074
  0
LINE
  8
0
 10
-1.0751
 20
-2.80074
 11
-1.12381
 21
-2.78154
  0
LINE
  8
0
 10
-1.12381
 20
-2.78154
 11
-1.17218
 21
-2.76151
  0
LINE
  8
0
 10
-1.17218
 20
-2.76151
 11
-1.2202
 21
-2.74063
  0
LINE
  8
0
 10
-1.2202
 20
-2.74063
 11
-1.26785
 21
-2.71892
  0
LINE
  8
0
 10
-1.26785
 20
-2.71892
 11
-1.31511
 21
-2.69638
  0
LINE
  8
0
 10
-1.31511
 20
-2.69638
 11
-1.36197
 21
-2.67302
  0
LINE
  8
0
 10
-1.36197
 20
-2.67302
 11
-1.4084
 21
-2.64883
  0
LINE
  8
0
 10
-1.4084
 20
-2.64883
 11
-1.45442
 21
-2.62386
  0
LINE
  8
0
 10
-1.45442
 20
-2.62386
 11
-1.5
 21
-2.59807
  0
LINE
  8
0
 10
-1.5
 20
-2.59807
 11
-1.5451
 21
-2.57149
  0
LINE
  8
0
 10
-1.5451
 20
-2.57149
 11
-1.58975
 21
-2.54414
  0
LINE
  8
0
 10
-1.58975
 20
-2.54414
 11
-1.63391
 21
-2.51601
  0
LINE
  8
0
 10
-1.63391
 20
-2.51601
 11
-1.67757
 21
-2.48711
  0
LINE
  8
0
 10
-1.67757
 20
-2.48711
 11
-1.72072
 21
-2.45744
  0
LINE
  8
0
 10
-1.72072
 20
-2.45744
 11
-1.76335
 21
-2.42705
  0
LINE
  8
0
 10
-1.76335
 20
-2.42705
 11
-1.80544
 21
-2.3959
  0
LINE
  8
0
 10
-1.80544
 20
-2.3959
 11
-1.84697
 21
-2.36403
  0
LINE
  8
0
 10
-1.84697
 20
-2.36403
 11
-1.88795
 21
-2.33144
  0
LINE
  8
0
 10
-1.88795
 20
-2.33144
 11
-1.92836
 21
-2.29813
  0
LINE
  8
0
 10
-1.92836
 20
-2.29813
 11
-1.96817
 21
-2.26411
  0
LINE
  8
0
 10
-1.96817
 20
-2.26411
 11
-2.00739
 21
-2.22943
  0
LINE
  8
0
 10
-2.00739
 20
-2.22943
 11
-2.04599
 21
-2.19405
  0
LINE
  8
0
 10
-2.04599
 20
-2.19405
 11
-2.08397
 21
-2.158
  0
LINE
  8
0
 10
-2.08397
 20
-2.158
 11
-2.12131
 21
-2.12131
  0
LINE
  8
0
 10
-2.12131
 20
-2.12131
 11
-2.158
 21
-2.08397
  0
LINE
  8
0
 10
-2.158
 20
-2.08397
 11
-2.19405
 21
-2.04599
  0
LINE
  8
0
 10
-2.19405
 20
-2.04599
 11
-2.22943
 21
-2.00739
  0
LINE
  8
0
 10
-2.22943
 20
-2.00739
 11
-2.26411
 21
-1.96817
  0
LINE
  8
0
 10
-2.26411
 20
-1.96817
 11
-2.29813
 21
-1.92836
  0
LINE
  8
0
 10
-2.29813
 20
-1.92836
 11
-2.33144
 21
-1.88795
  0
LINE
  8
0
 10
-2.33144
 20
-1.88795
 11
-2.36403
 21
-1.84697
  0
LINE
  8
0
 10
-2.36403
 20
-1.84697
 11
-2.3959
 21
-1.80544
  0
LINE
  8
0
 10
-2.3959
 20
-1.80544
 11
-2.42705
 21
-1.76335
  0
LINE
  8
0
 10
-2.42705
 20
-1.76335
 11
-2.45744
 21
-1.72072
  0
LINE
  8
0
 10
-2.45744
 20
-1.72072
 11
-2.48711
 21
-1.67757
  0
LINE
  8
0
 10
-2.48711
 20
-1.67757
 11
-2.51601
 21
-1.63391
  0
LINE
  8
0
 10
-2.51601
 20
-1.63391
 11
-2.54414
 21
-1.58975
  0
LINE
  8
0
 10
-2.54414
 20
-1.58975
 11
-2.57149
 21
-1.5451
  0
LINE
  8
0
 10
-2.57149
 20
-1.5451
 11
-2.59807
 21
-1.5
  0
LINE
  8
0
 10
-2.59807
 20
-1.5
 11
-2.62386
 21
-1.45442
  0
LINE
  8
0
 10
-2.62386
 20
-1.45442
 11
-2.64883
 21
-1.4084
  0
LINE
  8
0
 10
-2.64883
 20
-1.4084
 11
-2.67302
 21
-1.36197
  0
LINE
  8
0
 10
-2.67302
 20
-1.36197
 11
-2.69638
 21
-1.31511
  0
LINE
  8
0
 10
-2.69638
 20
-1.31511
 11
-2.71892
 21
-1.26785
  0
LINE
  8
0
 10
-2.71892
 20
-1.26785
 11
-2.74063
 21
-1.2202
  0
LINE
  8
0
 10
-2.74063
 20
-1.2202
 11
-2.76151
 21
-1.17218
  0
LINE
  8
0
 10
-2.76151
 20
-1.17218
 11
-2.78154
 21
-1.12381
  0
LINE
  8
0
 10
-2.78154
 20
-1.12381
 11
-2.80074
 21
-1.0751
  0
LINE
  8
0
 10
-2.80074
 20
-1.0751
 11
-2.81908
 21
-1.02605
  0
LINE
  8
0
 10
-2.81908
 20
-1.02605
 11
-2.83655
 21
-0.9767
  0
LINE
  8
0
 10
-2.83655
 20
-0.9767
 11
-2.85316
 21
-0.927048
  0
LINE
  8
0
 10
-2.85316
 20
-0.927048
 11
-2.86891
 21
-0.877106
  0
LINE
  8
0
 10
-2.86891
 20
-0.877106
 11
-2.88377
 21
-0.826904
  0
LINE
  8
0
 10
-2.88377
 20
-0.826904
 11
-2.89777
 21
-0.776443
  0
LINE
  8
0
 10
-2.89777
 20
-0.776443
 11
-2.91087
 21
-0.725754
  0
LINE
  8
0
 10
-2.91087
 20
-0.725754
 11
-2.9231
 21
-0.67485
  0
LINE
  8
0
 10
-2.9231
 20
-0.67485
 11
-2.93443
 21
-0.623734
  0
LINE
  8
0
 10
-2.93443
 20
-0.623734
 11
-2.94487
 21
-0.572418
  0
LINE
  8
0
 10
-2.94487
 20
-0.572418
 11
-2.95442
 21
-0.520935
  0
LINE
  8
0
 10
-2.95442
 20
-0.520935
 11
-2.96306
 21
-0.469299
  0
LINE
  8
0
 10
-2.96306
 20
-0.469299
 11
-2.97079
 21
-0.417511
  0
LINE
  8
0
 10
-2.97079
 20
-0.417511
 11
-2.97763
 21
-0.365601
  0
LINE
  8
0
 10
-2.97763
 20
-0.365601
 11
-2.98355
 21
-0.313583
  0
LINE
  8
0
 10
-2.98355
 20
-0.313583
 11
-2.98857
 21
-0.261459
  0
LINE
  8
0
 10
-2.98857
 20
-0.261459
 11
-2.99269
 21
-0.209259
  0
LINE
  8
0
 10
-2.99269
 20
-0.209259
 11
-2.99588
 21
-0.156998
  0
LINE
  8
0
 10
-2.99588
 20
-0.156998
 11
-2.99817
 21
-0.104691
  0
LINE
  8
0
 10
-2.99817
 20
-0.104691
 11
-2.99954
 21
-0.0523529
  0
LINE
  8
0
 10
-2.99954
 20
-0.0523529
 11
-3
 21
0
  0
LINE
  8
0
 10
-3
 20
0
 11
-2.99954
 21
0.0523529
  0
LINE
  8
0
 10
-2.99954
 20
0.0523529
 11
-2.99817
 21
0.104691
  0
LINE
  8
0
 10
-2.99817
 20
0.104691
 11
-2.99588
 21
0.156998
  0
LINE
  8
0
 10
-2.99588
 20
0.156998
 11
-2.99269
 21
0.209259
  0
LINE
  8
0
 10
-2.99269
 20
0.209259
 11
-2.98857
 21
0.261459
  0
LINE
  8
0
 10
-2.98857
 20
0.261459
 11
-2.98355
 21
0.313583
  0
LINE
  8
0
 10
-2.98355
 20
0.313583
 11
-2.97763
 21
0.365601
  0
LINE
  8
0
 10
-2.97763
 20
0.365601
 11
-2.97079
 21
0.417511
  0
LINE
  8
0
 10
-2.97079
 20
0.417511
 11
-2.96306
 21
0.469299
  0
LINE
  8
0
 10
-2.96306
 20
0.469299
 11
-2.95442
 21
0.520935
  0
LINE
  8
0
 10
-2.95442
 20
0.520935
 11
-2.94487
 21
0.572418
  0
LINE
  8
0
 10
-2.94487
 20
0.572418
 11
-2.93443
 21
0.623734
  0
LINE
  8
0
 10
-2.93443
 20
0.623734
 11
-2.9231
 21
0.67485
  0
LINE
  8
0
 10
-2.9231
 20
0.67485
 11
-2.91087
 21
0.725754
  0
LINE
  8
0
 10
-2.91087
 20
0.725754
 11
-2.89777
 21
0.776443
  0
LINE
  8
0
 10
-2.89777
 20
0.776443
 11
-2.88377
 21
0.826904
  0
LINE
  8
0
 10
-2.88377
 20
0.826904
 11
-2.86891
 21
0.877106
  0
LINE
  8
0
 10
-2.86891
 20
0.877106
 11
-2.85316
 21
0.927048
  0
LINE
  8
0
 10
-2.85316
 20
0.927048
 11
-2.83655
 21
0.9767
  0
LINE
  8
0
 10
-2.83655
 20
0.9767
 11
-2.81908
 21
1.02605
  0
LINE
  8
0
 10
-2.81908
 20
1.02605
 11
-2.80074
 21
1.0751
  0
LINE
  8
0
 10
-2.80074
 20
1.0751
 11
-2.78154
 21
1.12381
  0
LINE
  8
0
 10
-2.78154
 20
1.12381
 11
-2.76151
 21
1.17218
  0
LINE
  8
0
 10
-2.76151
 20
1.17218
 11
-2.74063
 21
1.2202
  0
LINE
  8
0
 10
-2.74063
 20
1.2202
 11
-2.71892
 21
1.26785
  0
LINE
  8
0
 10
-2.71892
 20
1.26785
 11
-2.69638
 21
1.31511
  0
LINE
  8
0
 10
-2.69638
 20
1.31511
 11
-2.67302
 21
1.36197
  0
LINE
  8
0
 10
-2.67302
 20
1.36197
 11
-2.64883
 21
1.4084
  0
LINE
  8
0
 10
-2.64883
 20
1.4084
 11
-2.62386
 21
1.45442
  0
LINE
  8
0
 10
-2.62386
 20
1.45442
 11
-2.59807
 21
1.5
  0
LINE
  8
0
 10
-2.59807
 20
1.5
 11
-2.57149
 21
1.5451
  0
LINE
  8
0
 10
-2.57149
 20
1.5451
 11
-2.54414
 21
1.58975
  0
LINE
  8
0
 10
-2.54414
 20
1.58975
 11
-2.51601
 21
1.63391
  0
LINE
  8
0
 10
-2.51601
 20
1.63391
 11
-2.48711
 21
1.67757
  0
LINE
  8
0
 10
-2.48711
 20
1.67757
 11
-2.45744
 21
1.72072
  0
LINE
  8
0
 10
-2.45744
 20
1.72072
 11
-2.42705
 21
1.76335
  0
LINE
  8
0
 10
-2.42705
 20
1.76335
 11
-2.3959
 21
1.80544
  0
LINE
  8
0
 10
-2.3959
 20
1.80544
 11
-2.36403
 21
1.84697
  0
LINE
  8
0
 10
-2.36403
 20
1.84697
 11
-2.33144
 21
1.88795
  0
LINE
  8
0
 10
-2.33144
 20
1.88795
 11
-2.29813
 21
1.92836
  0
LINE
  8
0
 10
-2.29813
 20
1.92836
 11
-2.26411
 21
1.96817
  0
LINE
  8
0
 10
-2.26411
 20
1.96817
 11
-2.22943
 21
2.00739
  0
LINE
  8
0
 10
-2.22943
 20
2.00739
 11
-2.19405
 21
2.04599
  0
LINE
  8
0
 10
-2.19405
 20
2.04599
 11
-2.158
 21
2.08397
  0
LINE
  8
0
 10
-2.158
 20
2.08397
 11
-2.12131
 21
2.12131
  0
LINE
  8
0
 10
-2.12131
 20
2.12131
 11
-2.08397
 21
2.158
  0
LINE
  8
0
 10
-2.08397
 20
2.158
 11
-2.04599
 21
2.19405
  0
LINE
  8
0
 10
-2.04599
 20
2.19405
 11
-2.00739
 21
2.22943
  0
LINE
  8
0
 10
-2.00739
 20
2.22943
 11
-1.96817
 21
2.26411
  0
LINE
  8
0
 10
-1.96817
 20
2.26411
 11
-1.92836
 21
2.29813
  0
LINE
  8
0
 10
-1.92836
 20
2.29813
 11
-1.88795
 21
2.33144
  0
LINE
  8
0
 10
-1.88795
 20
2.33144
 11
-1.84697
 21
2.36403
  0
LINE
  8
0
 10
-1.84697
 20
2.36403
 11
-1.80544
 21
2.3959
  0
LINE
  8
0
 10
-1.80544
 20
2.3959
 11
-1.76335
 21
2.42705
  0
LINE
  8
0
 10
-1.76335
 20
2.42705
 11
-1.72072
 21
2.45744
  0
LINE
  8
0
 10
-1.72072
 20
2.45744
 11
-1.67757
 21
2.48711
  0
LINE
  8
0
 10
-1.67757
 20
2.48711
 11
-1.63391
 21
2.51601
  0
LINE
  8
0
 10
-1.63391
 20
2.51601
 11
-1.58975
 21
2.54414
  0
LINE
  8
0
 10
-1.58975
 20
2.54414
 11
-1.5451
 21
2.57149
  0
LINE
  8
0
 10
-1.5451
 20
2.57149
 11
-1.5
 21
2.59807
  0
LINE
  8
0
 10
-1.5
 20
2.59807
 11
-1.45442
 21
2.62386
  0
LINE
  8
0
 10
-1.45442
 20
2.62386
 11
-1.4084
 21
2.64883
  0
LINE
  8
0
 10
-1.4084
 20
2.64883
 11
-1.36197
 21
2.67302
  0
LINE
  8
0
 10
-1.36197
 20
2.67302
 11
-1.31511
 21
2.69638
  0
LINE
  8
0
 10
-1.31511
 20
2.69638
 11
-1.26785
 21
2.71892
  0
LINE
  8
0
 10
-1.26785
 20
2.71892
 11
-1.2202
 21
2.74063
  0
LINE
  8
0
 10
-1.2202
 20
2.74063
 11
-1.17218
 21
2.76151
  0
LINE
  8
0
 10
-1.17218
 20
2.76151
 11
-1.12381
 21
2.78154
  0
LINE
  8
0
 10
-1.12381
 20
2.78154
 11
-1.0751
 21
2.80074
  0
LINE
  8
0
 10
-1.0751
 20
2.80074
 11
-1.02605
 21
2.81908
  0
LINE
  8
0
 10
-1.02605
 20
2.81908
 11
-0.9767
 21
2.83655
  0
LINE
  8
0
 10
-0.9767
 20
2.83655
 11
-0.927048
 21
2.85316
  0
LINE
  8
0
 10
-0.927048
 20
2.85316
 11
-0.877106
 21
2.86891
  0
LINE
  8
0
 10
-0.877106
 20
2.86891
 11
-0.826904
 21
2.88377
  0
LINE
  8
0
 10
-0.826904
 20
2.88377
 11
-0.776443
 21
2.89777
  0
LINE
  8
0
 10
-0.776443
 20
2.89777
 11
-0.725754
 21
2.91087
  0
LINE
  8
0
 10
-0.725754
 20
2.91087
 11
-0.67485
 21
2.9231
  0
LINE
  8
0
 10
-0.67485
 20
2.9231
 11
-0.623734
 21
2.93443
  0
LINE
  8
0
 10
-0.623734
 20
2.93443
 11
-0.572418
 21
2.94487
  0
LINE
  8
0
 10
-0.572418
 20
2.94487
 11
-0.520935
 21
2.95442
  0
LINE
  8
0
 10
-0.520935
 20
2.95442
 11
-0.469299
 21
2.96306
  0
LINE
  8
0
 10
-0.469299
 20
2.96306
 11
-0.417511
 21
2.97079
  0
LINE
  8
0
 10
-0.417511
 20
2.97079
 11
-0.365601
 21
2.97763
  0
LINE
  8
0
 10
-0.365601
 20
2.97763
 11
-0.313583
 21
2.98355
  0
LINE
  8
0
 10
-0.313583
 20
2.98355
 11
-0.261459
 21
2.98857
  0
LINE
  8
0
 10
-0.261459
 20
2.98857
 11
-0.209259
 21
2.99269
  0
LINE
  8
0
 10
-0.209259
 20
2.99269
 11
-0.156998
 21
2.99588
  0
LINE
  8
0
 10
-0.156998
 20
2.99588
 11
-0.104691
 21
2.99817
  0
LINE
  8
0
 10
-0.104691
 20
2.99817
 11
-0.0523529
 21
2.99954
  0
LINE
  8
0
 10
-0.0523529
 20
2.99954
 11
0
 21
3
  0
LINE
  8
0
 10
0
 20
3
 11
0.0523529
 21
2.99954
  0
LINE
  8
0
 10
0.0523529
 20
2.99954
 11
0.104691
 21
2.99817
  0
LINE
  8
0
 10
0.104691
 20
2.99817
 11
0.156998
 21
2.99588
  0
LINE
  8
0
 10
0.156998
 20
2.99588
 11
0.209259
 21
2.99269
  0
LINE
  8
0
 10
0.209259
 20
2.99269
 11
0.261459
 21
2.98857
  0
LINE
  8
0
 10
0.261459
 20
2.98857
 11
0.313583
 21
2.98355
  0
LINE
  8
0
 10
0.313583
 20
2.98355
 11
0.365601
 21
2.97763
  0
LINE
  8
0
 10
0.365601
 20
2.97763
 11
0.417511
 21
2.97079
  0
LINE
  8
0
 10
0.417511
 20
2.97079
 11
0.469299
 21
2.96306
  0
LINE
  8
0
 10
0.469299
 20
2.96306
 11
0.520935
 21
2.95442
  0
LINE
  8
0
 10
0.520935
 20
2.95442
 11
0.572418
 21
2.94487
  0
LINE
  8
0
 10
0.572418
 20
2.94487
 11
0.623734
 21
2.93443
  0
LINE
  8
0
 10
0.623734
 20
2.93443
 11
0.67485
 21
2.9231
  0
LINE
  8
0
 10
0.67485
 20
2.9231
 11
0.725754
 21
2.91087
  0
LINE
  8
0
 10
0.725754
 20
2.91087
 11
0.776443
 21
2.89777
  0
LINE
  8
0
 10
0.776443
 20
2.89777
 11
0.826904
 21
2.88377
  0
LINE
  8
0
 10
0.826904
 20
2.88377
 11
0.877106
 21
2.86891
  0
LINE
  8
0
 10
0.877106
 20
2.86891
 11
0.927048
 21
2.85316
  0
LINE
  8
0
 10
0.927048
 20
2.85316
 11
0.9767
 21
2.83655
  0
LINE
  8
0
 10
0.9767
 20
2.83655
 11
1.02605
 21
2.81908
  0
LINE
  8
0
 10
1.02605
 20
2.81908
 11
1.0751
 21
2.80074
  0
LINE
  8
0
 10
1.0751
 20
2.80074
 11
1.12381
 21
2.78154
  0
LINE
  8
0
 10
1.12381
 20
2.78154
 11
1.17218
 21
2.76151
  0
LINE
  8
0
 10
1.17218
 20
2.76151
 11
1.2202
 21
2.74063
  0
LINE
  8
0
 10
1.2202
 20
2.74063
 11
1.26785
 21
2.71892
  0
LINE
  8
0
 10
1.26785
 20
2.71892
 11
1.31511
 21
2.69638
  0
LINE
  8
0
 10
1.31511
 20
2.69638
 11
1.36197
 21
2.67302
  0
LINE
  8
0
 10
1.36197
 20
2.67302
 11
1.4084
 21
2.64883
  0
LINE
  8
0
 10
1.4084
 20
2.64883
 11
1.45442
 21
2.62386
  0
LINE
  8
0
 10
1.45442
 20
2.62386
 11
1.5
 21
2.59807
  0
LINE
  8
0
 10
1.5
 20
2.59807
 11
1.5451
 21
2.57149
  0
LINE
  8
0
 10
1.5451
 20
2.57149
 11
1.58975
 21
2.54414
  0
LINE
  8
0
 10
1.58975
 20
2.54414
 11
1.63391
 21
2.51601
  0
LINE
  8
0
 10
1.63391
 20
2.51601
 11
1.67757
 21
2.48711
  0
LINE
  8
0
 10
1.67757
 20
2.48711
 11
1.72072
 21
2.45744
  0
LINE
  8
0
 10
1.72072
 20
2.45744
 11
1.76335
 21
2.42705
  0
LINE
  8
0
 10
1.76335
 20
2.42705
 11
1.80544
 21
2.3959
  0
LINE
  8
0
 10
1.80544
 20
2.3959
 11
1.84697
 21
2.36403
  0
LINE
  8
0
 10
1.84697
 20
2.36403
 11
1.88795
 21
2.33144
  0
LINE
  8
0
 10
1.88795
 20
2.33144
 11
1.92836
 21
2.29813
  0
LINE
  8
0
 10
1.92836
 20
2.29813
 11
1.96817
 21
2.26411
  0
LINE
  8
0
 10
1.96817
 20
2.26411
 11
2.00739
 21
2.22943
  0
LINE
  8
0
 10
2.00739
 20
2.22943
 11
2.04599
 21
2.19405
  0
LINE
  8
0
 10
2.04599
 20
2.19405
 11
2.08397
 21
2.158
  0
LINE
  8
0
 10
2.08397
 20
2.158
 11
2.12131
 21
2.12131
  0
LINE
  8
0
 10
2.12131
 20
2.12131
 11
2.158
 21
2.08397
  0
LINE
  8
0
 10
2.158
 20
2.08397
 11
2.19405
 21
2.04599
  0
LINE
  8
0
 10
2.19405
 20
2.04599
 11
2.22943
 21
2.00739
  0
LINE
  8
0
 10
2.22943
 20
2.00739
 11
2.26411
 21
1.96817
  0
LINE
  8
0
 10
2.26411
 20
1.96817
 11
2.29813
 21
1.92836
  0
LINE
  8
0
 10
2.29813
 20
1.92836
 11
2.33144
 21
1.88795
  0
LINE
  8
0
 10
2.33144
 20
1.88795
 11
2.36403
 21
1.84697
  0
LINE
  8
0
 10
2.36403
 20
1.84697
 11
2.3959
 21
1.80544
  0
LINE
  8
0
 10
2.3959
 20
1.80544
 11
2.42705
 21
1.76335
  0
LINE
  8
0
 10
2.42705
 20
1.76335
 11
2.45744
 21
1.72072
  0
LINE
  8
0
 10
2.45744
 20
1.72072
 11
2.48711
 21
1.67757
  0
LINE
  8
0
 10
2.48711
 20
1.67757
 11
2.51601
 21
1.63391
  0
LINE
  8
0
 10
2.51601
 20
1.63391
 11
2.54414
 21
1.58975
  0
LINE
  8
0
 10
2.54414
 20
1.58975
 11
2.57149
 21
1.5451
  0
LINE
  8
0
 10
2.57149
 20
1.5451
 11
2.59807
 21
1.5
  0
LINE
  8
0
 10
2.59807
 20
1.5
 11
2.62386
 21
1.45442
  0
LINE
  8
0
 10
2.62386
 20
1.45442
 11
2.64883
 21
1.4084
  0
LINE
  8
0
 10
2.64883
 20
1.4084
 11
2.67302
 21
1.36197
  0
LINE
  8
0
 10
2.67302
 20
1.36197
 11
2.69638
 21
1.31511
  0
LINE
  8
0
 10
2.69638
 20
1.31511
 11
2.71892
 21
1.26785
  0
LINE
  8
0
 10
2.71892
 20
1.26785
 11
2.74063
 21
1.2202
  0
LINE
  8
0
 10
2.74063
 20
1.2202
 11
2.76151
 21
1.17218
  0
LINE
  8
0
 10
2.76151
 20
1.17218
 11
2.78154
 21
1.12381
  0
LINE
  8
0
 10
2.78154
 20
1.12381
 11
2.80074
 21
1.0751
  0
LINE
  8
0
 10
2.80074
 20
1.0751
 11
2.81908
 21
1.02605
  0
LINE
  8
0
 10
2.81908
 20
1.02605
 11
2.83655
 21
0.9767
  0
LINE
  8
0
 10
2.83655
 20
0.9767
 11
2.85316
 21
0.927048
  0
LINE
  8
0
 10
2.85316
 20
0.927048
 11
2.86891
 21
0.877106
  0
LINE
  8
0
 10
2.86891
 20
0.877106
 11
2.88377
 21
0.826904
  0
LINE
  8
0
 10
2.88377
 20
0.826904
 11
2.89777
 21
0.776443
  0
LINE
  8
0
 10
2.89777
 20
0.776443
 11
2.91087
 21
0.725754
  0
LINE
  8
0
 10
2.91087
 20
0.725754
 11
2.9231
 21
0.67485
  0
LINE
  8
0
 10
2.9231
 20
0.67485
 11
2.93443
 21
0.623734
  0
LINE
  8
0
 10
2.93443
 20
0.623734
 11
2.94487
 21
0.572418
  0
LINE
  8
0
 10
2.94487
 20
0.572418
 11
2.95442
 21
0.520935
  0
LINE
  8
0
 10
2.95442
 20
0.520935
 11
2.96306
 21
0.469299
  0
LINE
  8
0
 10
2.96306
 20
0.469299
 11
2.97079
 21
0.417511
  0
LINE
  8
0
 10
2.97079
 20
0.417511
 11
2.97763
 21
0.365601
  0
LINE
  8
0
 10
2.97763
 20
0.365601
 11
2.98355
 21
0.313583
  0
LINE
  8
0
 10
2.98355
 20
0.313583
 11
2.98857
 21
0.261459
  0
LINE
  8
0
 10
2.98857
 20
0.261459
 11
2.99269
 21
0.209259
  0
LINE
  8
0
 10
2.99269
 20
0.209259
 11
2.99588
 21
0.156998
  0
LINE
  8
0
 10
2.99588
 20
0.156998
 11
2.99817
 21
0.104691
  0
LINE
  8
0
 10
2.99817
 20
0.104691
 11
2.99954
 21
0.0523529
  0
LINE
  8
0
 10
2.99954
 20
0.0523529
 11
3
 21
0
  0
LINE
  8
0
 10
3
 20
0
 11
2.99954
 21
-0.0523529
  0
LINE
  8
0
 10
2.99954
 20
-0.0523529
 11
2.99817
 21
-0.104691
  0
LINE
  8
0
 10
2.99817
 20
-0.104691
 11
2.99588
 21
-0.156998
  0
LINE
  8
0
 10
2.99588
 20
-0.156998
 11
2.99269
 21
-0.209259
  0
LINE
  8
0
 10
2.99269
 20
-0.209259
 11
2.98857
 21
-0.261459
  0
LINE
  8
0
 10
2.98857
 20
-0.261459
 11
2.98355
 21
-0.313583
  0
LINE
  8
0
 10
2.98355
 20
-0.313583
 11
2.97763
 21
-0.365601
  0
LINE
  8
0
 10
2.97763
 20
-0.365601
 11
2.97079
 21
-0.417511
  0
LINE
  8
0
 10
2.97079
 20
-0.417511
 11
2.96306
 21
-0.469299
  0
LINE
  8
0
 10
2.96306
 20
-0.469299
 11
2.95442
 21
-0.520935
  0
LINE
  8
0
 10
2.95442
 20
-0.520935
 11
2.94487
 21
-0.572418
  0
LINE
  8
0
 10
2.94487
 20
-0.572418
 11
2.93443
 21
-0.623734
  0
LINE
  8
0
 10
2.93443
 20
-0.623734
 11
2.9231
 21
-0.67485
  0
LINE
  8
0
 10
2.9231
 20
-0.67485
 11
2.91087
 21
-0.725754
  0
LINE
  8
0
 10
2.91087
 20
-0.725754
 11
2.89777
 21
-0.776443
  0
LINE
  8
0
 10
2.89777
 20
-0.776443
 11
2.88377
 21
-0.826904
  0
LINE
  8
0
 10
2.88377
 20
-0.826904
 11
2.86891
 21
-0.877106
  0
LINE
  8
0
 10
2.86891
 20
-0.877106
 11
2.85316
 21
-0.927048
  0
LINE
  8
0
 10
2.85316
 20
-0.927048
 11
2.83655
 21
-0.9767
  0
LINE
  8
0
 10
2.83655
 20
-0.9767
 11
2.81908
 21
-1.02605
  0
LINE
  8
0
 10
2.81908
 20
-1.02605
 11
2.80074
 21
-1.0751
  0
LINE
  8
0
 10
2.80074
 20
-1.0751
 11
2.78154
 21
-1.12381
  0
LINE
  8
0
 10
2.78154
 20
-1.12381
 11
2.76151
 21
-1.17218
  0
LINE
  8
0
 10
2.76151
 20
-1.17218
 11
2.74063
 21
-1.2202
  0
LINE
  8
0
 10
2.74063
 20
-1.2202
 11
2.71892
 21
-1.26785
  0
LINE
  8
0
 10
2.71892
 20
-1.26785
 11
2.69638
 21
-1.31511
  0
LINE
  8
0
 10
2.69638
 20
-1.31511
 11
2.67302
 21
-1.36197
  0
LINE
  8
0
 10
2.67302
 20
-1.36197
 11
2.64883
 21
-1.4084
  0
LINE
  8
0
 10
2.64883
 20
-1.4084
 11
2.62386
 21
-1.45442
  0
LINE
  8
0
 10
2.62386
 20
-1.45442
 11
2.59807
 21
-1.5
  0
LINE
  8
0
 10
2.59807
 20
-1.5
 11
2.57149
 21
-1.5451
  0
LINE
  8
0
 10
2.57149
 20
-1.5451
 11
2.54414
 21
-1.58975
  0
LINE
  8
0
 10
2.54414
 20
-1.58975
 11
2.51601
 21
-1.63391
  0
LINE
  8
0
 10
2.51601
 20
-1.63391
 11
2.48711
 21
-1.67757
  0
LINE
  8
0
 10
2.48711
 20
-1.67757
 11
2.45744
 21
-1.72072
  0
LINE
  8
0
 10
2.45744
 20
-1.72072
 11
2.42705
 21
-1.76335
  0
LINE
  8
0
 10
2.42705
 20
-1.76335
 11
2.3959
 21
-1.80544
  0
LINE
  8
0
 10
2.3959
 20
-1.80544
 11
2.36403
 21
-1.84697
  0
LINE
  8
0
 10
2.36403
 20
-1.84697
 11
2.33144
 21
-1.88795
  0
LINE
  8
0
 10
2.33144
 20
-1.88795
 11
2.29813
 21
-1.92836
  0
LINE
  8
0
 10
2.29813
 20
-1.92836
 11
2.26411
 21
-1.96817
  0
LINE
  8
0
 10
2.26411
 20
-1.96817
 11
2.22943
 21
-2.00739
  0
LINE
  8
0
 10
2.22943
 20
-2.00739
 11
2.19405
 21
-2.04599
  0
LINE
  8
0
 10
2.19405
 20
-2.04599
 11
2.158
 21
-2.08397
  0
LINE
  8
0
 10
2.158
 20
-2.08397
 11
2.12131
 21
-2.12131
  0
LINE
  8
0
 10
2.12131
 20
-2.12131
 11
2.08397
 21
-2.158
  0
LINE
  8
0
 10
2.08397
 20
-2.158
 11
2.04599
 21
-2.19405
  0
LINE
  8
0
 10
2.04599
 20
-2.19405
 11
2.00739
 21
-2.22943
  0
LINE
  8
0
 10
2.00739
 20
-2.22943
 11
1.96817
 21
-2.26411
  0
LINE
  8
0
 10
1.96817
 20
-2.26411
 11
1.92836
 21
-2.29813
  0
LINE
  8
0
 10
1.92836
 20
-2.29813
 11
1.88795
 21
-2.33144
  0
LINE
  8
0
 10
1.88795
 20
-2.33144
 11
1.84697
 21
-2.36403
  0
LINE
  8
0
 10
1.84697
 20
-2.36403
 11
1.80544
 21
-2.3959
  0
LINE
  8
0
 10
1.80544
 20
-2.3959
 11
1.76335
 21
-2.42705
  0
LINE
  8
0
 10
1.76335
 20
-2.42705
 11
1.72072
 21
-2.45744
  0
LINE
  8
0
 10
1.72072
 20
-2.45744
 11
1.67757
 21
-2.48711
  0
LINE
  8
0
 10
1.67757
 20
-2.48711
 11
1.63391
 21
-2.51601
  0
LINE
  8
0
 10
1.63391
 20
-2.51601
 11
1.58975
 21
-2.54414
  0
LINE
  8
0
 10
1.58975
 20
-2.54414
 11
1.5451
 21
-2.57149
  0
LINE
  8
0
 10
1.5451
 20
-2.57149
 11
1.5
 21
-2.59807
  0
LINE
  8
0
 10
1.5
 20
-2.59807
 11
1.45442
 21
-2.62386
  0
LINE
  8
0
 10
1.45442
 20
-2.62386
 11
1.4084
 21
-2.64883
  0
LINE
  8
0
 10
1.4084
 20
-2.64883
 11
1.36197
 21
-2.67302
  0
LINE
  8
0
 10
1.36197
 20
-2.67302
 11
1.31511
 21
-2.69638
  0
LINE
  8
0
 10
1.31511
 20
-2.69638
 11
1.26785
 21
-2.71892
  0
LINE
  8
0
 10
1.26785
 20
-2.71892
 11
1.2202
 21
-2.74063
  0
LINE
  8
0
 10
1.2202
 20
-2.74063
 11
1.17218
 21
-2.76151
  0
LINE
  8
0
 10
1.17218
 20
-2.76151
 11
1.12381
 21
-2.78154
  0
LINE
  8
0
 10
1.12381
 20
-2.78154
 11
1.0751
 21
-2.80074
  0
LINE
  8
0
 10
1.0751
 20
-2.80074
 11
1.02605
 21
-2.81908
  0
LINE
  8
0
 10
1.02605
 20
-2.81908
 11
0.9767
 21
-2.83655
  0
LINE
  8
0
 10
0.9767
 20
-2.83655
 11
0.927048
 21
-2.85316
  0
LINE
  8
0
 10
0.927048
 20
-2.85316
 11
0.877106
 21
-2.86891
  0
LINE
  8
0
 10
0.877106
 20
-2.86891
 11
0.826904
 21
-2.88377
  0
LINE
  8
0
 10
0.826904
 20
-2.88377
 11
0.776443
 21
-2.89777
  0
LINE
  8
0
 10
0.776443
 20
-2.89777
 11
0.725754
 21
-2.91087
  0
LINE
  8
0
 10
0.725754
 20
-2.91087
 11
0.67485
 21
-2.9231
  0
LINE
  8
0
 10
0.67485
 20
-2.9231
 11
0.623734
 21
-2.93443
  0
LINE
  8
0
 10
0.623734
 20
-2.93443
 11
0.572418
 21
-2.94487
  0
LINE
  8
0
 10
0.572418
 20
-2.94487
 11
0.520935
 21
-2.95442
  0
LINE
  8
0
 10
0.520935
 20
-2.95442
 11
0.469299
 21
-2.96306
  0
LINE
  8
0
 10
0.469299
 20
-2.96306
 11
0.417511
 21
-2.97079
  0
LINE
  8
0
 10
0.417511
 20
-2.97079
 11
0.365601
 21
-2.97763
  0
LINE
  8
0
 10
0.365601
 20
-2.97763
 11
0.313583
 21
-2.98355
  0
LINE
  8
0
 10
0.313583
 20
-2.98355
 11
0.261459
 21
-2.98857
  0
LINE
  8
0
 10
0.261459
 20
-2.98857
 11
0.209259
 21
-2.99269
  0
LINE
  8
0
 10
0.209259
 20
-2.99269
 11
0.156998
 21
-2.99588
  0
LINE
  8
0
 10
0.156998
 20
-2.99588
 11
0.104691
 21
-2.99817
  0
LINE
  8
0
 10
0.104691
 20
-2.99817
 11
0.0523529
 21
-2.99954
  0
LINE
  8
0
 10
0.0523529
 20
-2.99954
 11
0
 21
-3
  0
LINE
  8
0
 10
0
 20
-3
 11
-0.0523529
 21
-2.99954
  0
ENDSEC
  0
SECTION
  2
OBJECTS
  0
DICTIONARY
  0
ENDSEC
  0
EOF
