  0
SECTION
  2
BLOCKS
  0
ENDSEC
  0
SECTION
  2
ENTITIES
  0
LINE
  8
0
 10
0.069809
 20
-3.99939
 11
0.139587
 21
-3.99756
  0
LINE
  8
0
 10
0.139587
 20
-3.99756
 11
0.209335
 21
-3.99451
  0
LINE
  8
0
 10
0.209335
 20
-3.99451
 11
0.279022
 21
-3.99025
  0
LINE
  8
0
 10
0.279022
 20
-3.99025
 11
0.348618
 21
-3.98477
  0
LINE
  8
0
 10
0.348618
 20
-3.98477
 11
0.418106
 21
-3.97807
  0
LINE
  8
0
 10
0.418106
 20
-3.97807
 11
0.487473
 21
-3.97018
  0
LINE
  8
0
 10
0.487473
 20
-3.97018
 11
0.556686
 21
-3.96106
  0
LINE
  8
0
 10
0.556686
 20
-3.96106
 11
0.625732
 21
-3.95074
  0
LINE
  8
0
 10
0.625732
 20
-3.95074
 11
0.69458
 21
-3.93922
  0
LINE
  8
0
 10
0.69458
 20
-3.93922
 11
0.763229
 21
-3.9265
  0
LINE
  8
0
 10
0.763229
 20
-3.9265
 11
0.831635
 21
-3.91258
  0
LINE
  8
0
 10
0.831635
 20
-3.91258
 11
0.899796
 21
-3.89748
  0
LINE
  8
0
 10
0.899796
 20
-3.89748
 11
0.967682
 21
-3.88118
  0
LINE
  8
0
 10
0.967682
 20
-3.88118
 11
1.03526
 21
-3.86369
  0
LINE
  8
0
 10
1.03526
 20
-3.86369
 11
1.10254
 21
-3.84503
  0
LINE
  8
0
 10
1.10254
 20
-3.84503
 11
1.16948
 21
-3.82521
  0
LINE
  8
0
 10
1.16948
 20
-3.82521
 11
1.23605
 21
-3.80421
  0
LINE
  8
0
 10
1.23605
 20
-3.80421
 11
1.30226
 21
-3.78207
  0
LINE
  8
0
 10
1.30226
 20
-3.78207
 11
1.36807
 21
-3.75876
  0
LINE
  8
0
 10
1.36807
 20
-3.75876
 11
1.43347
 21
-3.73431
  0
LINE
  8
0
 10
1.43347
 20
-3.73431
 11
1.49841
 21
-3.70872
  0
LINE
  8
0
 10
1.49841
 20
-3.70872
 11
1.56291
 21
-3.68201
  0
LINE
  8
0
 10
1.56291
 20
-3.68201
 11
1.62694
 21
-3.65417
  0
LINE
  8
0
 10
1.62694
 20
-3.65417
 11
1.69046
 21
-3.62523
  0
LINE
  8
0
 10
1.69046
 20
-3.62523
 11
1.75348
 21
-3.59517
  0
LINE
  8
0
 10
1.75348
 20
-3.59517
 11
1.81595
 21
-3.56403
  0
LINE
  8
0
 10
1.81595
 20
-3.56403
 11
1.87788
 21
-3.53178
  0
LINE
  8
0
 10
1.87788
 20
-3.53178
 11
1.93922
 21
-3.49847
  0
LINE
  8
0
 10
1.93922
 20
-3.49847
 11
2
 21
-3.4641
  0
LINE
  8
0
 10
2
 20
-3.4641
 11
2.06015
 21
-3.42867
  0
LINE
  8
0
 10
2.06015
 20
-3.42867
 11
2.11967
 21
-3.39218
  0
LINE
  8
0
 10
2.11967
 20
-3.39218
 11
2.17854
 21
-3.35468
  0
LINE
  8
0
 10
2.17854
 20
-3.35468
 11
2.23677
 21
-3.31615
  0
LINE
  8
0
 10
2.23677
 20
-3.31615
 11
2.2943
 21
-3.2766
  0
LINE
  8
0
 10
2.2943
 20
-3.2766
 11
2.35114
 21
-3.23605
  0
LINE
  8
0
 10
2.35114
 20
-3.23605
 11
2.40726
 21
-3.19453
  0
LINE
  8
0
 10
2.40726
 20
-3.19453
 11
2.46263
 21
-3.15204
  0
LINE
  8
0
 10
2.46263
 20
-3.15204
 11
2.51727
 21
-3.10858
  0
LINE
  8
0
 10
2.51727
 20
-3.10858
 11
2.57114
 21
-3.06416
  0
LINE
  8
0
 10
2.57114
 20
-3.06416
 11
2.62422
 21
-3.01883
  0
LINE
  8
0
 10
2.62422
 20
-3.01883
 11
2.67651
 21
-2.97256
  0
LINE
  8
0
 10
2.67651
 20
-2.97256
 11
2.72798
 21
-2.9254
  0
LINE
  8
0
 10
2.72798
 20
-2.9254
 11
2.77863
 21
-2.87735
  0
LINE
  8
0
 10
2.77863
 20
-2.87735
 11
2.82841
 21
-2.82841
  0
LINE
  8
0
 10
2.82841
 20
-2.82841
 11
2.87735
 21
-2.77863
  0
LINE
  8
0
 10
2.87735
 20
-2.77863
 11
2.9254
 21
-2.72798
  0
LINE
  8
0
 10
2.9254
 20
-2.72798
 11
2.97256
 21
-2.67651
  0
LINE
  8
0
 10
2.97256
 20
-2.67651
 11
3.01883
 21
-2.62422
  0
LINE
  8
0
 10
3.01883
 20
-2.62422
 11
3.06416
 21
-2.57114
  0
LINE
  8
0
 10
3.06416
 20
-2.57114
 11
3.10858
 21
-2.51727
  0
LINE
  8
0
 10
3.10858
 20
-2.51727
 11
3.15204
 21
-2.46263
  0
LINE
  8
0
 10
3.15204
 20
-2.46263
 11
3.19453
 21
-2.40726
  0
LINE
  8
0
 10
3.19453
 20
-2.40726
 11
3.23605
 21
-2.35114
  0
LINE
  8
0
 10
3.23605
 20
-2.35114
 11
3.2766
 21
-2.2943
  0
LINE
  8
0
 10
3.2766
 20
-2.2943
 11
3.31615
 21
-2.23677
  0
LINE
  8
0
 10
3.31615
 20
-2.23677
 11
3.35468
 21
-2.17854
  0
LINE
  8
0
 10
3.35468
 20
-2.17854
 11
3.39218
 21
-2.11967
  0
LINE
  8
0
 10
3.39218
 20
-2.11967
 11
3.42867
 21
-2.06015
  0
LINE
  8
0
 10
3.42867
 20
-2.06015
 11
3.4641
 21
-2
  0
LINE
  8
0
 10
3.4641
 20
-2
 11
3.49847
 21
-1.93922
  0
LINE
  8
0
 10
3.49847
 20
-1.93922
 11
3.53178
 21
-1.87788
  0
LINE
  8
0
 10
3.53178
 20
-1.87788
 11
3.56403
 21
-1.81595
  0
LINE
  8
0
 10
3.56403
 20
-1.81595
 11
3.59517
 21
-1.75348
  0
LINE
  8
0
 10
3.59517
 20
-1.75348
 11
3.62523
 21
-1.69046
  0
LINE
  8
0
 10
3.62523
 20
-1.69046
 11
3.65417
 21
-1.62694
  0
LINE
  8
0
 10
3.65417
 20
-1.62694
 11
3.68201
 21
-1.56291
  0
LINE
  8
0
 10
3.68201
 20
-1.56291
 11
3.70872
 21
-1.49841
  0
LINE
  8
0
 10
3.70872
 20
-1.49841
 11
3.73431
 21
-1.43347
  0
LINE
  8
0
 10
3.73431
 20
-1.43347
 11
3.75876
 21
-1.36807
  0
LINE
  8
0
 10
3.75876
 20
-1.36807
 11
3.78207
 21
-1.30226
  0
LINE
  8
0
 10
3.78207
 20
-1.30226
 11
3.80421
 21
-1.23605
  0
LINE
  8
0
 10
3.80421
 20
-1.23605
 11
3.82521
 21
-1.16948
  0
LINE
  8
0
 10
3.82521
 20
-1.16948
 11
3.84503
 21
-1.10254
  0
LINE
  8
0
 10
3.84503
 20
-1.10254
 11
3.86369
 21
-1.03526
  0
LINE
  8
0
 10
3.86369
 20
-1.03526
 11
3.88118
 21
-0.967682
  0
LINE
  8
0
 10
3.88118
 20
-0.967682
 11
3.89748
 21
-0.899796
  0
LINE
  8
0
 10
3.89748
 20
-0.899796
 11
3.91258
 21
-0.831635
  0
LINE
  8
0
 10
3.91258
 20
-0.831635
 11
3.9265
 21
-0.763229
  0
LINE
  8
0
 10
3.9265
 20
-0.763229
 11
3.93922
 21
-0.69458
  0
LINE
  8
0
 10
3.93922
 20
-0.69458
 11
3.95074
 21
-0.625732
  0
LINE
  8
0
 10
3.95074
 20
-0.625732
 11
3.96106
 21
-0.556686
  0
LINE
  8
0
 10
3.96106
 20
-0.556686
 11
3.97018
 21
-0.487473
  0
LINE
  8
0
 10
3.97018
 20
-0.487473
 11
3.97807
 21
-0.418106
  0
LINE
  8
0
 10
3.97807
 20
-0.418106
 11
3.98477
 21
-0.348618
  0
LINE
  8
0
 10
3.98477
 20
-0.348618
 11
3.99025
 21
-0.279022
  0
LINE
  8
0
 10
3.99025
 20
-0.279022
 11
3.99451
 21
-0.209335
  0
LINE
  8
0
 10
3.99451
 20
-0.209335
 11
3.99756
 21
-0.139587
  0
LINE
  8
0
 10
3.99756
 20
-0.139587
 11
3.99939
 21
-0.069809
  0
LINE
  8
0
 10
3.99939
 20
-0.069809
 11
4
 21
0
  0
LINE
  8
0
 10
4
 20
0
 11
3.99939
 21
0.069809
  0
LINE
  8
0
 10
3.99939
 20
0.069809
 11
3.99756
 21
0.139587
  0
LINE
  8
0
 10
3.99756
 20
0.139587
 11
3.99451
 21
0.209335
  0
LINE
  8
0
 10
3.99451
 20
0.209335
 11
3.99025
 21
0.279022
  0
LINE
  8
0
 10
3.99025
 20
0.279022
 11
3.98477
 21
0.348618
  0
LINE
  8
0
 10
3.98477
 20
0.348618
 11
3.97807
 21
0.418106
  0
LINE
  8
0
 10
3.97807
 20
0.418106
 11
3.97018
 21
0.487473
  0
LINE
  8
0
 10
3.97018
 20
0.487473
 11
3.96106
 21
0.556686
  0
LINE
  8
0
 10
3.96106
 20
0.556686
 11
3.95074
 21
0.625732
  0
LINE
  8
0
 10
3.95074
 20
0.625732
 11
3.93922
 21
0.69458
  0
LINE
  8
0
 10
3.93922
 20
0.69458
 11
3.9265
 21
0.763229
  0
LINE
  8
0
 10
3.9265
 20
0.763229
 11
3.91258
 21
0.831635
  0
LINE
  8
0
 10
3.91258
 20
0.831635
 11
3.89748
 21
0.899796
  0
LINE
  8
0
 10
3.89748
 20
0.899796
 11
3.88118
 21
0.967682
  0
LINE
  8
0
 10
3.88118
 20
0.967682
 11
3.86369
 21
1.03526
  0
LINE
  8
0
 10
3.86369
 20
1.03526
 11
3.84503
 21
1.10254
  0
LINE
  8
0
 10
3.84503
 20
1.10254
 11
3.82521
 21
1.16948
  0
LINE
  8
0
 10
3.82521
 20
1.16948
 11
3.80421
 21
1.23605
  0
LINE
  8
0
 10
3.80421
 20
1.23605
 11
3.78207
 21
1.30226
  0
LINE
  8
0
 10
3.78207
 20
1.30226
 11
3.75876
 21
1.36807
  0
LINE
  8
0
 10
3.75876
 20
1.36807
 11
3.73431
 21
1.43347
  0
LINE
  8
0
 10
3.73431
 20
1.43347
 11
3.70872
 21
1.49841
  0
LINE
  8
0
 10
3.70872
 20
1.49841
 11
3.68201
 21
1.56291
  0
LINE
  8
0
 10
3.68201
 20
1.56291
 11
3.65417
 21
1.62694
  0
LINE
  8
0
 10
3.65417
 20
1.62694
 11
3.62523
 21
1.69046
  0
LINE
  8
0
 10
3.62523
 20
1.69046
 11
3.59517
 21
1.75348
  0
LINE
  8
0
 10
3.59517
 20
1.75348
 11
3.56403
 21
1.81595
  0
LINE
  8
0
 10
3.56403
 20
1.81595
 11
3.53178
 21
1.87788
  0
LINE
  8
0
 10
3.53178
 20
1.87788
 11
3.49847
 21
1.93922
  0
LINE
  8
0
 10
3.49847
 20
1.93922
 11
3.4641
 21
2
  0
LINE
  8
0
 10
3.4641
 20
2
 11
3.42867
 21
2.06015
  0
LINE
  8
0
 10
3.42867
 20
2.06015
 11
3.39218
 21
2.11967
  0
LINE
  8
0
 10
3.39218
 20
2.11967
 11
3.35468
 21
2.17854
  0
LINE
  8
0
 10
3.35468
 20
2.17854
 11
3.31615
 21
2.23677
  0
LINE
  8
0
 10
3.31615
 20
2.23677
 11
3.2766
 21
2.2943
  0
LINE
  8
0
 10
3.2766
 20
2.2943
 11
3.23605
 21
2.35114
  0
LINE
  8
0
 10
3.23605
 20
2.35114
 11
3.19453
 21
2.40726
  0
LINE
  8
0
 10
3.19453
 20
2.40726
 11
3.15204
 21
2.46263
  0
LINE
  8
0
 10
3.15204
 20
2.46263
 11
3.10858
 21
2.51727
  0
LINE
  8
0
 10
3.10858
 20
2.51727
 11
3.06416
 21
2.57114
  0
LINE
  8
0
 10
3.06416
 20
2.57114
 11
3.01883
 21
2.62422
  0
LINE
  8
0
 10
3.01883
 20
2.62422
 11
2.97256
 21
2.67651
  0
LINE
  8
0
 10
2.97256
 20
2.67651
 11
2.9254
 21
2.72798
  0
LINE
  8
0
 10
2.9254
 20
2.72798
 11
2.87735
 21
2.77863
  0
LINE
  8
0
 10
2.87735
 20
2.77863
 11
2.82841
 21
2.82841
  0
LINE
  8
0
 10
2.82841
 20
2.82841
 11
2.77863
 21
2.87735
  0
LINE
  8
0
 10
2.77863
 20
2.87735
 11
2.72798
 21
2.9254
  0
LINE
  8
0
 10
2.72798
 20
2.9254
 11
2.67651
 21
2.97256
  0
LINE
  8
0
 10
2.67651
 20
2.97256
 11
2.62422
 21
3.01883
  0
LINE
  8
0
 10
2.62422
 20
3.01883
 11
2.57114
 21
3.06416
  0
LINE
  8
0
 10
2.57114
 20
3.06416
 11
2.51727
 21
3.10858
  0
LINE
  8
0
 10
2.51727
 20
3.10858
 11
2.46263
 21
3.15204
  0
LINE
  8
0
 10
2.46263
 20
3.15204
 11
2.40726
 21
3.19453
  0
LINE
  8
0
 10
2.40726
 20
3.19453
 11
2.35114
 21
3.23605
  0
LINE
  8
0
 10
2.35114
 20
3.23605
 11
2.2943
 21
3.2766
  0
LINE
  8
0
 10
2.2943
 20
3.2766
 11
2.23677
 21
3.31615
  0
LINE
  8
0
 10
2.23677
 20
3.31615
 11
2.17854
 21
3.35468
  0
LINE
  8
0
 10
2.17854
 20
3.35468
 11
2.11967
 21
3.39218
  0
LINE
  8
0
 10
2.11967
 20
3.39218
 11
2.06015
 21
3.42867
  0
LINE
  8
0
 10
2.06015
 20
3.42867
 11
2
 21
3.4641
  0
LINE
  8
0
 10
2
 20
3.4641
 11
1.93922
 21
3.49847
  0
LINE
  8
0
 10
1.93922
 20
3.49847
 11
1.87788
 21
3.53178
  0
LINE
  8
0
 10
1.87788
 20
3.53178
 11
1.81595
 21
3.56403
  0
LINE
  8
0
 10
1.81595
 20
3.56403
 11
1.75348
 21
3.59517
  0
LINE
  8
0
 10
1.75348
 20
3.59517
 11
1.69046
 21
3.62523
  0
LINE
  8
0
 10
1.69046
 20
3.62523
 11
1.62694
 21
3.65417
  0
LINE
  8
0
 10
1.62694
 20
3.65417
 11
1.56291
 21
3.68201
  0
LINE
  8
0
 10
1.56291
 20
3.68201
 11
1.49841
 21
3.70872
  0
LINE
  8
0
 10
1.49841
 20
3.70872
 11
1.43347
 21
3.73431
  0
LINE
  8
0
 10
1.43347
 20
3.73431
 11
1.36807
 21
3.75876
  0
LINE
  8
0
 10
1.36807
 20
3.75876
 11
1.30226
 21
3.78207
  0
LINE
  8
0
 10
1.30226
 20
3.78207
 11
1.23605
 21
3.80421
  0
LINE
  8
0
 10
1.23605
 20
3.80421
 11
1.16948
 21
3.82521
  0
LINE
  8
0
 10
1.16948
 20
3.82521
 11
1.10254
 21
3.84503
  0
LINE
  8
0
 10
1.10254
 20
3.84503
 11
1.03526
 21
3.86369
  0
LINE
  8
0
 10
1.03526
 20
3.86369
 11
0.967682
 21
3.88118
  0
LINE
  8
0
 10
0.967682
 20
3.88118
 11
0.899796
 21
3.89748
  0
LINE
  8
0
 10
0.899796
 20
3.89748
 11
0.831635
 21
3.91258
  0
LINE
  8
0
 10
0.831635
 20
3.91258
 11
0.763229
 21
3.9265
  0
LINE
  8
0
 10
0.763229
 20
3.9265
 11
0.69458
 21
3.93922
  0
LINE
  8
0
 10
0.69458
 20
3.93922
 11
0.625732
 21
3.95074
  0
LINE
  8
0
 10
0.625732
 20
3.95074
 11
0.556686
 21
3.96106
  0
LINE
  8
0
 10
0.556686
 20
3.96106
 11
0.487473
 21
3.97018
  0
LINE
  8
0
 10
0.487473
 20
3.97018
 11
0.418106
 21
3.97807
  0
LINE
  8
0
 10
0.418106
 20
3.97807
 11
0.348618
 21
3.98477
  0
LINE
  8
0
 10
0.348618
 20
3.98477
 11
0.279022
 21
3.99025
  0
LINE
  8
0
 10
0.279022
 20
3.99025
 11
0.209335
 21
3.99451
  0
LINE
  8
0
 10
0.209335
 20
3.99451
 11
0.139587
 21
3.99756
  0
LINE
  8
0
 10
0.139587
 20
3.99756
 11
0.069809
 21
3.99939
  0
LINE
  8
0
 10
0.069809
 20
3.99939
 11
0
 21
4
  0
LINE
  8
0
 10
0
 20
4
 11
-0.069809
 21
3.99939
  0
LINE
  8
0
 10
-0.069809
 20
3.99939
 11
-0.139587
 21
3.99756
  0
LINE
  8
0
 10
-0.139587
 20
3.99756
 11
-0.209335
 21
3.99451
  0
LINE
  8
0
 10
-0.209335
 20
3.99451
 11
-0.279022
 21
3.99025
  0
LINE
  8
0
 10
-0.279022
 20
3.99025
 11
-0.348618
 21
3.98477
  0
LINE
  8
0
 10
-0.348618
 20
3.98477
 11
-0.418106
 21
3.97807
  0
LINE
  8
0
 10
-0.418106
 20
3.97807
 11
-0.487473
 21
3.97018
  0
LINE
  8
0
 10
-0.487473
 20
3.97018
 11
-0.556686
 21
3.96106
  0
LINE
  8
0
 10
-0.556686
 20
3.96106
 11
-0.625732
 21
3.95074
  0
LINE
  8
0
 10
-0.625732
 20
3.95074
 11
-0.69458
 21
3.93922
  0
LINE
  8
0
 10
-0.69458
 20
3.93922
 11
-0.763229
 21
3.9265
  0
LINE
  8
0
 10
-0.763229
 20
3.9265
 11
-0.831635
 21
3.91258
  0
LINE
  8
0
 10
-0.831635
 20
3.91258
 11
-0.899796
 21
3.89748
  0
LINE
  8
0
 10
-0.899796
 20
3.89748
 11
-0.967682
 21
3.88118
  0
LINE
  8
0
 10
-0.967682
 20
3.88118
 11
-1.03526
 21
3.86369
  0
LINE
  8
0
 10
-1.03526
 20
3.86369
 11
-1.10254
 21
3.84503
  0
LINE
  8
0
 10
-1.10254
 20
3.84503
 11
-1.16948
 21
3.82521
  0
LINE
  8
0
 10
-1.16948
 20
3.82521
 11
-1.23605
 21
3.80421
  0
LINE
  8
0
 10
-1.23605
 20
3.80421
 11
-1.30226
 21
3.78207
  0
LINE
  8
0
 10
-1.30226
 20
3.78207
 11
-1.36807
 21
3.75876
  0
LINE
  8
0
 10
-1.36807
 20
3.75876
 11
-1.43347
 21
3.73431
  0
LINE
  8
0
 10
-1.43347
 20
3.73431
 11
-1.49841
 21
3.70872
  0
LINE
  8
0
 10
-1.49841
 20
3.70872
 11
-1.56291
 21
3.68201
  0
LINE
  8
0
 10
-1.56291
 20
3.68201
 11
-1.62694
 21
3.65417
  0
LINE
  8
0
 10
-1.62694
 20
3.65417
 11
-1.69046
 21
3.62523
  0
LINE
  8
0
 10
-1.69046
 20
3.62523
 11
-1.75348
 21
3.59517
  0
LINE
  8
0
 10
-1.75348
 20
3.59517
 11
-1.81595
 21
3.56403
  0
LINE
  8
0
 10
-1.81595
 20
3.56403
 11
-1.87788
 21
3.53178
  0
LINE
  8
0
 10
-1.87788
 20
3.53178
 11
-1.93922
 21
3.49847
  0
LINE
  8
0
 10
-1.93922
 20
3.49847
 11
-2
 21
3.4641
  0
LINE
  8
0
 10
-2
 20
3.4641
 11
-2.06015
 21
3.42867
  0
LINE
  8
0
 10
-2.06015
 20
3.42867
 11
-2.11967
 21
3.39218
  0
LINE
  8
0
 10
-2.11967
 20
3.39218
 11
-2.17854
 21
3.35468
  0
LINE
  8
0
 10
-2.17854
 20
3.35468
 11
-2.23677
 21
3.31615
  0
LINE
  8
0
 10
-2.23677
 20
3.31615
 11
-2.2943
 21
3.2766
  0
LINE
  8
0
 10
-2.2943
 20
3.2766
 11
-2.35114
 21
3.23605
  0
LINE
  8
0
 10
-2.35114
 20
3.23605
 11
-2.40726
 21
3.19453
  0
LINE
  8
0
 10
-2.40726
 20
3.19453
 11
-2.46263
 21
3.15204
  0
LINE
  8
0
 10
-2.46263
 20
3.15204
 11
-2.51727
 21
3.10858
  0
LINE
  8
0
 10
-2.51727
 20
3.10858
 11
-2.57114
 21
3.06416
  0
LINE
  8
0
 10
-2.57114
 20
3.06416
 11
-2.62422
 21
3.01883
  0
LINE
  8
0
 10
-2.62422
 20
3.01883
 11
-2.67651
 21
2.97256
  0
LINE
  8
0
 10
-2.67651
 20
2.97256
 11
-2.72798
 21
2.9254
  0
LINE
  8
0
 10
-2.72798
 20
2.9254
 11
-2.77863
 21
2.87735
  0
LINE
  8
0
 10
-2.77863
 20
2.87735
 11
-2.82841
 21
2.82841
  0
LINE
  8
0
 10
-2.82841
 20
2.82841
 11
-2.87735
 21
2.77863
  0
LINE
  8
0
 10
-2.87735
 20
2.77863
 11
-2.9254
 21
2.72798
  0
LINE
  8
0
 10
-2.9254
 20
2.72798
 11
-2.97256
 21
2.67651
  0
LINE
  8
0
 10
-2.97256
 20
2.67651
 11
-3.01883
 21
2.62422
  0
LINE
  8
0
 10
-3.01883
 20
2.62422
 11
-3.06416
 21
2.57114
  0
LINE
  8
0
 10
-3.06416
 20
2.57114
 11
-3.10858
 21
2.51727
  0
LINE
  8
0
 10
-3.10858
 20
2.51727
 11
-3.15204
 21
2.46263
  0
LINE
  8
0
 10
-3.15204
 20
2.46263
 11
-3.19453
 21
2.40726
  0
LINE
  8
0
 10
-3.19453
 20
2.40726
 11
-3.23605
 21
2.35114
  0
LINE
  8
0
 10
-3.23605
 20
2.35114
 11
-3.2766
 21
2.2943
  0
LINE
  8
0
 10
-3.2766
 20
2.2943
 11
-3.31615
 21
2.23677
  0
LINE
  8
0
 10
-3.31615
 20
2.23677
 11
-3.35468
 21
2.17854
  0
LINE
  8
0
 10
-3.35468
 20
2.17854
 11
-3.39218
 21
2.11967
  0
LINE
  8
0
 10
-3.39218
 20
2.11967
 11
-3.42867
 21
2.06015
  0
LINE
  8
0
 10
-3.42867
 20
2.06015
 11
-3.4641
 21
2
  0
LINE
  8
0
 10
-3.4641
 20
2
 11
-3.49847
 21
1.93922
  0
LINE
  8
0
 10
-3.49847
 20
1.93922
 11
-3.53178
 21
1.87788
  0
LINE
  8
0
 10
-3.53178
 20
1.87788
 11
-3.56403
 21
1.81595
  0
LINE
  8
0
 10
-3.56403
 20
1.81595
 11
-3.59517
 21
1.75348
  0
LINE
  8
0
 10
-3.59517
 20
1.75348
 11
-3.62523
 21
1.69046
  0
LINE
  8
0
 10
-3.62523
 20
1.69046
 11
-3.65417
 21
1.62694
  0
LINE
  8
0
 10
-3.65417
 20
1.62694
 11
-3.68201
 21
1.56291
  0
LINE
  8
0
 10
-3.68201
 20
1.56291
 11
-3.70872
 21
1.49841
  0
LINE
  8
0
 10
-3.70872
 20
1.49841
 11
-3.73431
 21
1.43347
  0
LINE
  8
0
 10
-3.73431
 20
1.43347
 11
-3.75876
 21
1.36807
  0
LINE
  8
0
 10
-3.75876
 20
1.36807
 11
-3.78207
 21
1.30226
  0
LINE
  8
0
 10
-3.78207
 20
1.30226
 11
-3.80421
 21
1.23605
  0
LINE
  8
0
 10
-3.80421
 20
1.23605
 11
-3.82521
 21
1.16948
  0
LINE
  8
0
 10
-3.82521
 20
1.16948
 11
-3.84503
 21
1.10254
  0
LINE
  8
0
 10
-3.84503
 20
1.10254
 11
-3.86369
 21
1.03526
  0
LINE
  8
0
 10
-3.86369
 20
1.03526
 11
-3.88118
 21
0.967682
  0
LINE
  8
0
 10
-3.88118
 20
0.967682
 11
-3.89748
 21
0.899796
  0
LINE
  8
0
 10
-3.89748
 20
0.899796
 11
-3.91258
 21
0.831635
  0
LINE
  8
0
 10
-3.91258
 20
0.831635
 11
-3.9265
 21
0.763229
  0
LINE
  8
0
 10
-3.9265
 20
0.763229
 11
-3.93922
 21
0.69458
  0
LINE
  8
0
 10
-3.93922
 20
0.69458
 11
-3.95074
 21
0.625732
  0
LINE
  8
0
 10
-3.95074
 20
0.625732
 11
-3.96106
 21
0.556686
  0
LINE
  8
0
 10
-3.96106
 20
0.556686
 11
-3.97018
 21
0.487473
  0
LINE
  8
0
 10
-3.97018
 20
0.487473
 11
-3.97807
 21
0.418106
  0
LINE
  8
0
 10
-3.97807
 20
0.418106
 11
-3.98477
 21
0.348618
  0
LINE
  8
0
 10
-3.98477
 20
0.348618
 11
-3.99025
 21
0.279022
  0
LINE
  8
0
 10
-3.99025
 20
0.279022
 11
-3.99451
 21
0.209335
  0
LINE
  8
0
 10
-3.99451
 20
0.209335
 11
-3.99756
 21
0.139587
  0
LINE
  8
0
 10
-3.99756
 20
0.139587
 11
-3.99939
 21
0.069809
  0
LINE
  8
0
 10
-3.99939
 20
0.069809
 11
-4
 21
0
  0
LINE
  8
0
 10
-4
 20
0
 11
-3.99939
 21
-0.069809
  0
LINE
  8
0
 10
-3.99939
 20
-0.069809
 11
-3.99756
 21
-0.139587
  0
LINE
  8
0
 10
-3.99756
 20
-0.139587
 11
-3.99451
 21
-0.209335
  0
LINE
  8
0
 10
-3.99451
 20
-0.209335
 11
-3.99025
 21
-0.279022
  0
LINE
  8
0
 10
-3.99025
 20
-0.279022
 11
-3.98477
 21
-0.348618
  0
LINE
  8
0
 10
-3.98477
 20
-0.348618
 11
-3.97807
 21
-0.418106
  0
LINE
  8
0
 10
-3.97807
 20
-0.418106
 11
-3.97018
 21
-0.487473
  0
LINE
  8
0
 10
-3.97018
 20
-0.487473
 11
-3.96106
 21
-0.556686
  0
LINE
  8
0
 10
-3.96106
 20
-0.556686
 11
-3.95074
 21
-0.625732
  0
LINE
  8
0
 10
-3.95074
 20
-0.625732
 11
-3.93922
 21
-0.69458
  0
LINE
  8
0
 10
-3.93922
 20
-0.69458
 11
-3.9265
 21
-0.763229
  0
LINE
  8
0
 10
-3.9265
 20
-0.763229
 11
-3.91258
 21
-0.831635
  0
LINE
  8
0
 10
-3.91258
 20
-0.831635
 11
-3.89748
 21
-0.899796
  0
LINE
  8
0
 10
-3.89748
 20
-0.899796
 11
-3.88118
 21
-0.967682
  0
LINE
  8
0
 10
-3.88118
 20
-0.967682
 11
-3.86369
 21
-1.03526
  0
LINE
  8
0
 10
-3.86369
 20
-1.03526
 11
-3.84503
 21
-1.10254
  0
LINE
  8
0
 10
-3.84503
 20
-1.10254
 11
-3.82521
 21
-1.16948
  0
LINE
  8
0
 10
-3.82521
 20
-1.16948
 11
-3.80421
 21
-1.23605
  0
LINE
  8
0
 10
-3.80421
 20
-1.23605
 11
-3.78207
 21
-1.30226
  0
LINE
  8
0
 10
-3.78207
 20
-1.30226
 11
-3.75876
 21
-1.36807
  0
LINE
  8
0
 10
-3.75876
 20
-1.36807
 11
-3.73431
 21
-1.43347
  0
LINE
  8
0
 10
-3.73431
 20
-1.43347
 11
-3.70872
 21
-1.49841
  0
LINE
  8
0
 10
-3.70872
 20
-1.49841
 11
-3.68201
 21
-1.56291
  0
LINE
  8
0
 10
-3.68201
 20
-1.56291
 11
-3.65417
 21
-1.62694
  0
LINE
  8
0
 10
-3.65417
 20
-1.62694
 11
-3.62523
 21
-1.69046
  0
LINE
  8
0
 10
-3.62523
 20
-1.69046
 11
-3.59517
 21
-1.75348
  0
LINE
  8
0
 10
-3.59517
 20
-1.75348
 11
-3.56403
 21
-1.81595
  0
LINE
  8
0
 10
-3.56403
 20
-1.81595
 11
-3.53178
 21
-1.87788
  0
LINE
  8
0
 10
-3.53178
 20
-1.87788
 11
-3.49847
 21
-1.93922
  0
LINE
  8
0
 10
-3.49847
 20
-1.93922
 11
-3.4641
 21
-2
  0
LINE
  8
0
 10
-3.4641
 20
-2
 11
-3.42867
 21
-2.06015
  0
LINE
  8
0
 10
-3.42867
 20
-2.06015
 11
-3.39218
 21
-2.11967
  0
LINE
  8
0
 10
-3.39218
 20
-2.11967
 11
-3.35468
 21
-2.17854
  0
LINE
  8
0
 10
-3.35468
 20
-2.17854
 11
-3.31615
 21
-2.23677
  0
LINE
  8
0
 10
-3.31615
 20
-2.23677
 11
-3.2766
 21
-2.2943
  0
LINE
  8
0
 10
-3.2766
 20
-2.2943
 11
-3.23605
 21
-2.35114
  0
LINE
  8
0
 10
-3.23605
 20
-2.35114
 11
-3.19453
 21
-2.40726
  0
LINE
  8
0
 10
-3.19453
 20
-2.40726
 11
-3.15204
 21
-2.46263
  0
LINE
  8
0
 10
-3.15204
 20
-2.46263
 11
-3.10858
 21
-2.51727
  0
LINE
  8
0
 10
-3.10858
 20
-2.51727
 11
-3.06416
 21
-2.57114
  0
LINE
  8
0
 10
-3.06416
 20
-2.57114
 11
-3.01883
 21
-2.62422
  0
LINE
  8
0
 10
-3.01883
 20
-2.62422
 11
-2.97256
 21
-2.67651
  0
LINE
  8
0
 10
-2.97256
 20
-2.67651
 11
-2.9254
 21
-2.72798
  0
LINE
  8
0
 10
-2.9254
 20
-2.72798
 11
-2.87735
 21
-2.77863
  0
LINE
  8
0
 10
-2.87735
 20
-2.77863
 11
-2.82841
 21
-2.82841
  0
LINE
  8
0
 10
-2.82841
 20
-2.82841
 11
-2.77863
 21
-2.87735
  0
LINE
  8
0
 10
-2.77863
 20
-2.87735
 11
-2.72798
 21
-2.9254
  0
LINE
  8
0
 10
-2.72798
 20
-2.9254
 11
-2.67651
 21
-2.97256
  0
LINE
  8
0
 10
-2.67651
 20
-2.97256
 11
-2.62422
 21
-3.01883
  0
LINE
  8
0
 10
-2.62422
 20
-3.01883
 11
-2.57114
 21
-3.06416
  0
LINE
  8
0
 10
-2.57114
 20
-3.06416
 11
-2.51727
 21
-3.10858
  0
LINE
  8
0
 10
-2.51727
 20
-3.10858
 11
-2.46263
 21
-3.15204
  0
LINE
  8
0
 10
-2.46263
 20
-3.15204
 11
-2.40726
 21
-3.19453
  0
LINE
  8
0
 10
-2.40726
 20
-3.19453
 11
-2.35114
 21
-3.23605
  0
LINE
  8
0
 10
-2.35114
 20
-3.23605
 11
-2.2943
 21
-3.2766
  0
LINE
  8
0
 10
-2.2943
 20
-3.2766
 11
-2.23677
 21
-3.31615
  0
LINE
  8
0
 10
-2.23677
 20
-3.31615
 11
-2.17854
 21
-3.35468
  0
LINE
  8
0
 10
-2.17854
 20
-3.35468
 11
-2.11967
 21
-3.39218
  0
LINE
  8
0
 10
-2.11967
 20
-3.39218
 11
-2.06015
 21
-3.42867
  0
LINE
  8
0
 10
-2.06015
 20
-3.42867
 11
-2
 21
-3.4641
  0
LINE
  8
0
 10
-2
 20
-3.4641
 11
-1.93922
 21
-3.49847
  0
LINE
  8
0
 10
-1.93922
 20
-3.49847
 11
-1.87788
 21
-3.53178
  0
LINE
  8
0
 10
-1.87788
 20
-3.53178
 11
-1.81595
 21
-3.56403
  0
LINE
  8
0
 10
-1.81595
 20
-3.56403
 11
-1.75348
 21
-3.59517
  0
LINE
  8
0
 10
-1.75348
 20
-3.59517
 11
-1.69046
 21
-3.62523
  0
LINE
  8
0
 10
-1.69046
 20
-3.62523
 11
-1.62694
 21
-3.65417
  0
LINE
  8
0
 10
-1.62694
 20
-3.65417
 11
-1.56291
 21
-3.68201
  0
LINE
  8
0
 10
-1.56291
 20
-3.68201
 11
-1.49841
 21
-3.70872
  0
LINE
  8
0
 10
-1.49841
 20
-3.70872
 11
-1.43347
 21
-3.73431
  0
LINE
  8
0
 10
-1.43347
 20
-3.73431
 11
-1.36807
 21
-3.75876
  0
LINE
  8
0
 10
-1.36807
 20
-3.75876
 11
-1.30226
 21
-3.78207
  0
LINE
  8
0
 10
-1.30226
 20
-3.78207
 11
-1.23605
 21
-3.80421
  0
LINE
  8
0
 10
-1.23605
 20
-3.80421
 11
-1.16948
 21
-3.82521
  0
LINE
  8
0
 10
-1.16948
 20
-3.82521
 11
-1.10254
 21
-3.84503
  0
LINE
  8
0
 10
-1.10254
 20
-3.84503
 11
-1.03526
 21
-3.86369
  0
LINE
  8
0
 10
-1.03526
 20
-3.86369
 11
-0.967682
 21
-3.88118
  0
LINE
  8
0
 10
-0.967682
 20
-3.88118
 11
-0.899796
 21
-3.89748
  0
LINE
  8
0
 10
-0.899796
 20
-3.89748
 11
-0.831635
 21
-3.91258
  0
LINE
  8
0
 10
-0.831635
 20
-3.91258
 11
-0.763229
 21
-3.9265
  0
LINE
  8
0
 10
-0.763229
 20
-3.9265
 11
-0.69458
 21
-3.93922
  0
LINE
  8
0
 10
-0.69458
 20
-3.93922
 11
-0.625732
 21
-3.95074
  0
LINE
  8
0
 10
-0.625732
 20
-3.95074
 11
-0.556686
 21
-3.96106
  0
LINE
  8
0
 10
-0.556686
 20
-3.96106
 11
-0.487473
 21
-3.97018
  0
LINE
  8
0
 10
-0.487473
 20
-3.97018
 11
-0.418106
 21
-3.97807
  0
LINE
  8
0
 10
-0.418106
 20
-3.97807
 11
-0.348618
 21
-3.98477
  0
LINE
  8
0
 10
-0.348618
 20
-3.98477
 11
-0.279022
 21
-3.99025
  0
LINE
  8
0
 10
-0.279022
 20
-3.99025
 11
-0.209335
 21
-3.99451
  0
LINE
  8
0
 10
-0.209335
 20
-3.99451
 11
-0.139587
 21
-3.99756
  0
LINE
  8
0
 10
-0.139587
 20
-3.99756
 11
-0.069809
 21
-3.99939
  0
LINE
  8
0
 10
-0.069809
 20
-3.99939
 11
0
 21
-4
  0
LINE
  8
0
 10
0
 20
-4
 11
0.069809
 21
-3.99939
  0
LINE
  8
0
 10
-1.30753
 20
-2.7
 11
-1.31511
 21
-2.69638
  0
LINE
  8
0
 10
-1.31511
 20
-2.69638
 11
-1.36197
 21
-2.67302
  0
LINE
  8
0
 10
-1.36197
 20
-2.67302
 11
-1.4084
 21
-2.64883
  0
LINE
  8
0
 10
-1.4084
 20
-2.64883
 11
-1.45442
 21
-2.62386
  0
LINE
  8
0
 10
-1.45442
 20
-2.62386
 11
-1.5
 21
-2.59807
  0
LINE
  8
0
 10
-1.5
 20
-2.59807
 11
-1.5451
 21
-2.57149
  0
LINE
  8
0
 10
-1.5451
 20
-2.57149
 11
-1.58975
 21
-2.54414
  0
LINE
  8
0
 10
-1.58975
 20
-2.54414
 11
-1.63391
 21
-2.51601
  0
LINE
  8
0
 10
-1.63391
 20
-2.51601
 11
-1.67757
 21
-2.48711
  0
LINE
  8
0
 10
-1.67757
 20
-2.48711
 11
-1.72072
 21
-2.45744
  0
LINE
  8
0
 10
-1.72072
 20
-2.45744
 11
-1.76335
 21
-2.42705
  0
LINE
  8
0
 10
-1.76335
 20
-2.42705
 11
-1.80544
 21
-2.3959
  0
LINE
  8
0
 10
-1.80544
 20
-2.3959
 11
-1.84697
 21
-2.36403
  0
LINE
  8
0
 10
-1.84697
 20
-2.36403
 11
-1.88795
 21
-2.33144
  0
LINE
  8
0
 10
-1.88795
 20
-2.33144
 11
-1.92836
 21
-2.29813
  0
LINE
  8
0
 10
-1.92836
 20
-2.29813
 11
-1.96817
 21
-2.26411
  0
LINE
  8
0
 10
-1.96817
 20
-2.26411
 11
-2.00739
 21
-2.22943
  0
LINE
  8
0
 10
-2.00739
 20
-2.22943
 11
-2.04599
 21
-2.19405
  0
LINE
  8
0
 10
-2.04599
 20
-2.19405
 11
-2.08397
 21
-2.158
  0
LINE
  8
0
 10
-2.08397
 20
-2.158
 11
-2.12131
 21
-2.12131
  0
LINE
  8
0
 10
-2.12131
 20
-2.12131
 11
-2.158
 21
-2.08397
  0
LINE
  8
0
 10
-2.158
 20
-2.08397
 11
-2.19405
 21
-2.04599
  0
LINE
  8
0
 10
-2.19405
 20
-2.04599
 11
-2.22943
 21
-2.00739
  0
LINE
  8
0
 10
-2.22943
 20
-2.00739
 11
-2.26411
 21
-1.96817
  0
LINE
  8
0
 10
-2.26411
 20
-1.96817
 11
-2.29813
 21
-1.92836
  0
LINE
  8
0
 10
-2.29813
 20
-1.92836
 11
-2.33144
 21
-1.88795
  0
LINE
  8
0
 10
-2.33144
 20
-1.88795
 11
-2.36403
 21
-1.84697
  0
LINE
  8
0
 10
-2.36403
 20
-1.84697
 11
-2.3959
 21
-1.80544
  0
LINE
  8
0
 10
-2.3959
 20
-1.80544
 11
-2.42705
 21
-1.76335
  0
LINE
  8
0
 10
-2.42705
 20
-1.76335
 11
-2.45744
 21
-1.72072
  0
LINE
  8
0
 10
-2.45744
 20
-1.72072
 11
-2.48711
 21
-1.67757
  0
LINE
  8
0
 10
-2.48711
 20
-1.67757
 11
-2.51601
 21
-1.63391
  0
LINE
  8
0
 10
-2.51601
 20
-1.63391
 11
-2.54414
 21
-1.58975
  0
LINE
  8
0
 10
-2.54414
 20
-1.58975
 11
-2.57149
 21
-1.5451
  0
LINE
  8
0
 10
-2.57149
 20
-1.5451
 11
-2.59807
 21
-1.5
  0
LINE
  8
0
 10
-2.59807
 20
-1.5
 11
-2.62386
 21
-1.45442
  0
LINE
  8
0
 10
-2.62386
 20
-1.45442
 11
-2.64883
 21
-1.4084
  0
LINE
  8
0
 10
-2.64883
 20
-1.4084
 11
-2.67302
 21
-1.36197
  0
LINE
  8
0
 10
-2.67302
 20
-1.36197
 11
-2.69638
 21
-1.31511
  0
LINE
  8
0
 10
-2.69638
 20
-1.31511
 11
-2.71892
 21
-1.26785
  0
LINE
  8
0
 10
-2.71892
 20
-1.26785
 11
-2.74063
 21
-1.2202
  0
LINE
  8
0
 10
-2.74063
 20
-1.2202
 11
-2.76151
 21
-1.17218
  0
LINE
  8
0
 10
-2.76151
 20
-1.17218
 11
-2.78154
 21
-1.12381
  0
LINE
  8
0
 10
-2.78154
 20
-1.12381
 11
-2.80074
 21
-1.0751
  0
LINE
  8
0
 10
-2.80074
 20
-1.0751
 11
-2.81908
 21
-1.02605
  0
LINE
  8
0
 10
-2.81908
 20
-1.02605
 11
-2.83655
 21
-0.9767
  0
LINE
  8
0
 10
-2.83655
 20
-0.9767
 11
-2.85316
 21
-0.927048
  0
LINE
  8
0
 10
-2.85316
 20
-0.927048
 11
-2.86891
 21
-0.877106
  0
LINE
  8
0
 10
-2.86891
 20
-0.877106
 11
-2.88377
 21
-0.826904
  0
LINE
  8
0
 10
-2.88377
 20
-0.826904
 11
-2.89777
 21
-0.776443
  0
LINE
  8
0
 10
-2.89777
 20
-0.776443
 11
-2.91087
 21
-0.725754
  0
LINE
  8
0
 10
-2.91087
 20
-0.725754
 11
-2.9231
 21
-0.67485
  0
LINE
  8
0
 10
-2.9231
 20
-0.67485
 11
-2.93443
 21
-0.623734
  0
LINE
  8
0
 10
-2.93443
 20
-0.623734
 11
-2.94487
 21
-0.572418
  0
LINE
  8
0
 10
-2.94487
 20
-0.572418
 11
-2.95442
 21
-0.520935
  0
LINE
  8
0
 10
-2.95442
 20
-0.520935
 11
-2.96306
 21
-0.469299
  0
LINE
  8
0
 10
-2.96306
 20
-0.469299
 11
-2.97079
 21
-0.417511
  0
LINE
  8
0
 10
-2.97079
 20
-0.417511
 11
-2.97763
 21
-0.365601
  0
LINE
  8
0
 10
-2.97763
 20
-0.365601
 11
-2.98355
 21
-0.313583
  0
LINE
  8
0
 10
-2.98355
 20
-0.313583
 11
-2.98857
 21
-0.261459
  0
LINE
  8
0
 10
-2.98857
 20
-0.261459
 11
-2.99269
 21
-0.209259
  0
LINE
  8
0
 10
-2.99269
 20
-0.209259
 11
-2.99588
 21
-0.156998
  0
LINE
  8
0
 10
-2.99588
 20
-0.156998
 11
-2.99817
 21
-0.104691
  0
LINE
  8
0
 10
-2.99817
 20
-0.104691
 11
-2.99954
 21
-0.0523529
  0
LINE
  8
0
 10
-2.99954
 20
-0.0523529
 11
-3
 21
0
  0
LINE
  8
0
 10
-3
 20
0
 11
-2.99954
 21
0.0523529
  0
LINE
  8
0
 10
-2.99954
 20
0.0523529
 11
-2.99817
 21
0.104691
  0
LINE
  8
0
 10
-2.99817
 20
0.104691
 11
-2.99588
 21
0.156998
  0
LINE
  8
0
 10
-2.99588
 20
0.156998
 11
-2.99269
 21
0.209259
  0
LINE
  8
0
 10
-2.99269
 20
0.209259
 11
-2.98857
 21
0.261459
  0
LINE
  8
0
 10
-2.98857
 20
0.261459
 11
-2.98355
 21
0.313583
  0
LINE
  8
0
 10
-2.98355
 20
0.313583
 11
-2.97763
 21
0.365601
  0
LINE
  8
0
 10
-2.97763
 20
0.365601
 11
-2.97079
 21
0.417511
  0
LINE
  8
0
 10
-2.97079
 20
0.417511
 11
-2.96306
 21
0.469299
  0
LINE
  8
0
 10
-2.96306
 20
0.469299
 11
-2.95442
 21
0.520935
  0
LINE
  8
0
 10
-2.95442
 20
0.520935
 11
-2.94487
 21
0.572418
  0
LINE
  8
0
 10
-2.94487
 20
0.572418
 11
-2.93443
 21
0.623734
  0
LINE
  8
0
 10
-2.93443
 20
0.623734
 11
-2.9231
 21
0.67485
  0
LINE
  8
0
 10
-2.9231
 20
0.67485
 11
-2.91087
 21
0.725754
  0
LINE
  8
0
 10
-2.91087
 20
0.725754
 11
-2.89777
 21
0.776443
  0
LINE
  8
0
 10
-2.89777
 20
0.776443
 11
-2.88377
 21
0.826904
  0
LINE
  8
0
 10
-2.88377
 20
0.826904
 11
-2.86891
 21
0.877106
  0
LINE
  8
0
 10
-2.86891
 20
0.877106
 11
-2.85316
 21
0.927048
  0
LINE
  8
0
 10
-2.85316
 20
0.927048
 11
-2.83655
 21
0.9767
  0
LINE
  8
0
 10
-2.83655
 20
0.9767
 11
-2.81908
 21
1.02605
  0
LINE
  8
0
 10
-2.81908
 20
1.02605
 11
-2.80074
 21
1.0751
  0
LINE
  8
0
 10
-2.80074
 20
1.0751
 11
-2.78154
 21
1.12381
  0
LINE
  8
0
 10
-2.78154
 20
1.12381
 11
-2.76151
 21
1.17218
  0
LINE
  8
0
 10
-2.76151
 20
1.17218
 11
-2.74063
 21
1.2202
  0
LINE
  8
0
 10
-2.74063
 20
1.2202
 11
-2.71892
 21
1.26785
  0
LINE
  8
0
 10
-2.71892
 20
1.26785
 11
-2.69638
 21
1.31511
  0
LINE
  8
0
 10
-2.69638
 20
1.31511
 11
-2.67302
 21
1.36197
  0
LINE
  8
0
 10
-2.67302
 20
1.36197
 11
-2.64883
 21
1.4084
  0
LINE
  8
0
 10
-2.64883
 20
1.4084
 11
-2.62386
 21
1.45442
  0
LINE
  8
0
 10
-2.62386
 20
1.45442
 11
-2.59807
 21
1.5
  0
LINE
  8
0
 10
-2.59807
 20
1.5
 11
-2.57149
 21
1.5451
  0
LINE
  8
0
 10
-2.57149
 20
1.5451
 11
-2.54414
 21
1.58975
  0
LINE
  8
0
 10
-2.54414
 20
1.58975
 11
-2.51601
 21
1.63391
  0
LINE
  8
0
 10
-2.51601
 20
1.63391
 11
-2.48711
 21
1.67757
  0
LINE
  8
0
 10
-2.48711
 20
1.67757
 11
-2.45744
 21
1.72072
  0
LINE
  8
0
 10
-2.45744
 20
1.72072
 11
-2.42705
 21
1.76335
  0
LINE
  8
0
 10
-2.42705
 20
1.76335
 11
-2.3959
 21
1.80544
  0
LINE
  8
0
 10
-2.3959
 20
1.80544
 11
-2.36403
 21
1.84697
  0
LINE
  8
0
 10
-2.36403
 20
1.84697
 11
-2.33144
 21
1.88795
  0
LINE
  8
0
 10
-2.33144
 20
1.88795
 11
-2.29813
 21
1.92836
  0
LINE
  8
0
 10
-2.29813
 20
1.92836
 11
-2.26411
 21
1.96817
  0
LINE
  8
0
 10
-2.26411
 20
1.96817
 11
-2.22943
 21
2.00739
  0
LINE
  8
0
 10
-2.22943
 20
2.00739
 11
-2.19405
 21
2.04599
  0
LINE
  8
0
 10
-2.19405
 20
2.04599
 11
-2.158
 21
2.08397
  0
LINE
  8
0
 10
-2.158
 20
2.08397
 11
-2.12131
 21
2.12131
  0
LINE
  8
0
 10
-2.12131
 20
2.12131
 11
-2.08397
 21
2.158
  0
LINE
  8
0
 10
-2.08397
 20
2.158
 11
-2.04599
 21
2.19405
  0
LINE
  8
0
 10
-2.04599
 20
2.19405
 11
-2.00739
 21
2.22943
  0
LINE
  8
0
 10
-2.00739
 20
2.22943
 11
-1.96817
 21
2.26411
  0
LINE
  8
0
 10
-1.96817
 20
2.26411
 11
-1.92836
 21
2.29813
  0
LINE
  8
0
 10
-1.92836
 20
2.29813
 11
-1.88795
 21
2.33144
  0
LINE
  8
0
 10
-1.88795
 20
2.33144
 11
-1.84697
 21
2.36403
  0
LINE
  8
0
 10
-1.84697
 20
2.36403
 11
-1.80544
 21
2.3959
  0
LINE
  8
0
 10
-1.80544
 20
2.3959
 11
-1.76335
 21
2.42705
  0
LINE
  8
0
 10
-1.76335
 20
2.42705
 11
-1.72072
 21
2.45744
  0
LINE
  8
0
 10
-1.72072
 20
2.45744
 11
-1.67757
 21
2.48711
  0
LINE
  8
0
 10
-1.67757
 20
2.48711
 11
-1.63391
 21
2.51601
  0
LINE
  8
0
 10
-1.63391
 20
2.51601
 11
-1.58975
 21
2.54414
  0
LINE
  8
0
 10
-1.58975
 20
2.54414
 11
-1.5451
 21
2.57149
  0
LINE
  8
0
 10
-1.5451
 20
2.57149
 11
-1.5
 21
2.59807
  0
LINE
  8
0
 10
-1.5
 20
2.59807
 11
-1.45442
 21
2.62386
  0
LINE
  8
0
 10
-1.45442
 20
2.62386
 11
-1.4084
 21
2.64883
  0
LINE
  8
0
 10
-1.4084
 20
2.64883
 11
-1.36197
 21
2.67302
  0
LINE
  8
0
 10
-1.36197
 20
2.67302
 11
-1.31511
 21
2.69638
  0
LINE
  8
0
 10
-1.31511
 20
2.69638
 11
-1.26785
 21
2.71892
  0
LINE
  8
0
 10
-1.26785
 20
2.71892
 11
-1.2202
 21
2.74063
  0
LINE
  8
0
 10
-1.2202
 20
2.74063
 11
-1.17218
 21
2.76151
  0
LINE
  8
0
 10
-1.17218
 20
2.76151
 11
-1.12381
 21
2.78154
  0
LINE
  8
0
 10
-1.12381
 20
2.78154
 11
-1.0751
 21
2.80074
  0
LINE
  8
0
 10
-1.0751
 20
2.80074
 11
-1.02605
 21
2.81908
  0
LINE
  8
0
 10
-1.02605
 20
2.81908
 11
-0.9767
 21
2.83655
  0
LINE
  8
0
 10
-0.9767
 20
2.83655
 11
-0.927048
 21
2.85316
  0
LINE
  8
0
 10
-0.927048
 20
2.85316
 11
-0.877106
 21
2.86891
  0
LINE
  8
0
 10
-0.877106
 20
2.86891
 11
-0.826904
 21
2.88377
  0
LINE
  8
0
 10
-0.826904
 20
2.88377
 11
-0.776443
 21
2.89777
  0
LINE
  8
0
 10
-0.776443
 20
2.89777
 11
-0.725754
 21
2.91087
  0
LINE
  8
0
 10
-0.725754
 20
2.91087
 11
-0.67485
 21
2.9231
  0
LINE
  8
0
 10
-0.67485
 20
2.9231
 11
-0.623734
 21
2.93443
  0
LINE
  8
0
 10
-0.623734
 20
2.93443
 11
-0.572418
 21
2.94487
  0
LINE
  8
0
 10
-0.572418
 20
2.94487
 11
-0.520935
 21
2.95442
  0
LINE
  8
0
 10
-0.520935
 20
2.95442
 11
-0.469299
 21
2.96306
  0
LINE
  8
0
 10
-0.469299
 20
2.96306
 11
-0.417511
 21
2.97079
  0
LINE
  8
0
 10
-0.417511
 20
2.97079
 11
-0.365601
 21
2.97763
  0
LINE
  8
0
 10
-0.365601
 20
2.97763
 11
-0.313583
 21
2.98355
  0
LINE
  8
0
 10
-0.313583
 20
2.98355
 11
-0.261459
 21
2.98857
  0
LINE
  8
0
 10
-0.261459
 20
2.98857
 11
-0.209259
 21
2.99269
  0
LINE
  8
0
 10
-0.209259
 20
2.99269
 11
-0.156998
 21
2.99588
  0
LINE
  8
0
 10
-0.156998
 20
2.99588
 11
-0.104691
 21
2.99817
  0
LINE
  8
0
 10
-0.104691
 20
2.99817
 11
-0.0523529
 21
2.99954
  0
LINE
  8
0
 10
-0.0523529
 20
2.99954
 11
0
 21
3
  0
LINE
  8
0
 10
0
 20
3
 11
0.0523529
 21
2.99954
  0
LINE
  8
0
 10
0.0523529
 20
2.99954
 11
0.104691
 21
2.99817
  0
LINE
  8
0
 10
0.104691
 20
2.99817
 11
0.156998
 21
2.99588
  0
LINE
  8
0
 10
0.156998
 20
2.99588
 11
0.209259
 21
2.99269
  0
LINE
  8
0
 10
0.209259
 20
2.99269
 11
0.261459
 21
2.98857
  0
LINE
  8
0
 10
0.261459
 20
2.98857
 11
0.313583
 21
2.98355
  0
LINE
  8
0
 10
0.313583
 20
2.98355
 11
0.365601
 21
2.97763
  0
LINE
  8
0
 10
0.365601
 20
2.97763
 11
0.417511
 21
2.97079
  0
LINE
  8
0
 10
0.417511
 20
2.97079
 11
0.469299
 21
2.96306
  0
LINE
  8
0
 10
0.469299
 20
2.96306
 11
0.520935
 21
2.95442
  0
LINE
  8
0
 10
0.520935
 20
2.95442
 11
0.572418
 21
2.94487
  0
LINE
  8
0
 10
0.572418
 20
2.94487
 11
0.623734
 21
2.93443
  0
LINE
  8
0
 10
0.623734
 20
2.93443
 11
0.67485
 21
2.9231
  0
LINE
  8
0
 10
0.67485
 20
2.9231
 11
0.725754
 21
2.91087
  0
LINE
  8
0
 10
0.725754
 20
2.91087
 11
0.776443
 21
2.89777
  0
LINE
  8
0
 10
0.776443
 20
2.89777
 11
0.826904
 21
2.88377
  0
LINE
  8
0
 10
0.826904
 20
2.88377
 11
0.877106
 21
2.86891
  0
LINE
  8
0
 10
0.877106
 20
2.86891
 11
0.927048
 21
2.85316
  0
LINE
  8
0
 10
0.927048
 20
2.85316
 11
0.9767
 21
2.83655
  0
LINE
  8
0
 10
0.9767
 20
2.83655
 11
1.02605
 21
2.81908
  0
LINE
  8
0
 10
1.02605
 20
2.81908
 11
1.0751
 21
2.80074
  0
LINE
  8
0
 10
1.0751
 20
2.80074
 11
1.12381
 21
2.78154
  0
LINE
  8
0
 10
1.12381
 20
2.78154
 11
1.17218
 21
2.76151
  0
LINE
  8
0
 10
1.17218
 20
2.76151
 11
1.2202
 21
2.74063
  0
LINE
  8
0
 10
1.2202
 20
2.74063
 11
1.26785
 21
2.71892
  0
LINE
  8
0
 10
1.26785
 20
2.71892
 11
1.31511
 21
2.69638
  0
LINE
  8
0
 10
1.31511
 20
2.69638
 11
1.36197
 21
2.67302
  0
LINE
  8
0
 10
1.36197
 20
2.67302
 11
1.4084
 21
2.64883
  0
LINE
  8
0
 10
1.4084
 20
2.64883
 11
1.45442
 21
2.62386
  0
LINE
  8
0
 10
1.45442
 20
2.62386
 11
1.5
 21
2.59807
  0
LINE
  8
0
 10
1.5
 20
2.59807
 11
1.5451
 21
2.57149
  0
LINE
  8
0
 10
1.5451
 20
2.57149
 11
1.58975
 21
2.54414
  0
LINE
  8
0
 10
1.58975
 20
2.54414
 11
1.63391
 21
2.51601
  0
LINE
  8
0
 10
1.63391
 20
2.51601
 11
1.67757
 21
2.48711
  0
LINE
  8
0
 10
1.67757
 20
2.48711
 11
1.72072
 21
2.45744
  0
LINE
  8
0
 10
1.72072
 20
2.45744
 11
1.76335
 21
2.42705
  0
LINE
  8
0
 10
1.76335
 20
2.42705
 11
1.80544
 21
2.3959
  0
LINE
  8
0
 10
1.80544
 20
2.3959
 11
1.84697
 21
2.36403
  0
LINE
  8
0
 10
1.84697
 20
2.36403
 11
1.88795
 21
2.33144
  0
LINE
  8
0
 10
1.88795
 20
2.33144
 11
1.92836
 21
2.29813
  0
LINE
  8
0
 10
1.92836
 20
2.29813
 11
1.96817
 21
2.26411
  0
LINE
  8
0
 10
1.96817
 20
2.26411
 11
2.00739
 21
2.22943
  0
LINE
  8
0
 10
2.00739
 20
2.22943
 11
2.04599
 21
2.19405
  0
LINE
  8
0
 10
2.04599
 20
2.19405
 11
2.08397
 21
2.158
  0
LINE
  8
0
 10
2.08397
 20
2.158
 11
2.12131
 21
2.12131
  0
LINE
  8
0
 10
2.12131
 20
2.12131
 11
2.158
 21
2.08397
  0
LINE
  8
0
 10
2.158
 20
2.08397
 11
2.19405
 21
2.04599
  0
LINE
  8
0
 10
2.19405
 20
2.04599
 11
2.22943
 21
2.00739
  0
LINE
  8
0
 10
2.22943
 20
2.00739
 11
2.26411
 21
1.96817
  0
LINE
  8
0
 10
2.26411
 20
1.96817
 11
2.29813
 21
1.92836
  0
LINE
  8
0
 10
2.29813
 20
1.92836
 11
2.33144
 21
1.88795
  0
LINE
  8
0
 10
2.33144
 20
1.88795
 11
2.36403
 21
1.84697
  0
LINE
  8
0
 10
2.36403
 20
1.84697
 11
2.3959
 21
1.80544
  0
LINE
  8
0
 10
2.3959
 20
1.80544
 11
2.42705
 21
1.76335
  0
LINE
  8
0
 10
2.42705
 20
1.76335
 11
2.45744
 21
1.72072
  0
LINE
  8
0
 10
2.45744
 20
1.72072
 11
2.48711
 21
1.67757
  0
LINE
  8
0
 10
2.48711
 20
1.67757
 11
2.51601
 21
1.63391
  0
LINE
  8
0
 10
2.51601
 20
1.63391
 11
2.54414
 21
1.58975
  0
LINE
  8
0
 10
2.54414
 20
1.58975
 11
2.57149
 21
1.5451
  0
LINE
  8
0
 10
2.57149
 20
1.5451
 11
2.59807
 21
1.5
  0
LINE
  8
0
 10
2.59807
 20
1.5
 11
2.62386
 21
1.45442
  0
LINE
  8
0
 10
2.62386
 20
1.45442
 11
2.64883
 21
1.4084
  0
LINE
  8
0
 10
2.64883
 20
1.4084
 11
2.67302
 21
1.36197
  0
LINE
  8
0
 10
2.67302
 20
1.36197
 11
2.69638
 21
1.31511
  0
LINE
  8
0
 10
2.69638
 20
1.31511
 11
2.71892
 21
1.26785
  0
LINE
  8
0
 10
2.71892
 20
1.26785
 11
2.74063
 21
1.2202
  0
LINE
  8
0
 10
2.74063
 20
1.2202
 11
2.76151
 21
1.17218
  0
LINE
  8
0
 10
2.76151
 20
1.17218
 11
2.78154
 21
1.12381
  0
LINE
  8
0
 10
2.78154
 20
1.12381
 11
2.80074
 21
1.0751
  0
LINE
  8
0
 10
2.80074
 20
1.0751
 11
2.81908
 21
1.02605
  0
LINE
  8
0
 10
2.81908
 20
1.02605
 11
2.83655
 21
0.9767
  0
LINE
  8
0
 10
2.83655
 20
0.9767
 11
2.85316
 21
0.927048
  0
LINE
  8
0
 10
2.85316
 20
0.927048
 11
2.86891
 21
0.877106
  0
LINE
  8
0
 10
2.86891
 20
0.877106
 11
2.88377
 21
0.826904
  0
LINE
  8
0
 10
2.88377
 20
0.826904
 11
2.89777
 21
0.776443
  0
LINE
  8
0
 10
2.89777
 20
0.776443
 11
2.91087
 21
0.725754
  0
LINE
  8
0
 10
2.91087
 20
0.725754
 11
2.9231
 21
0.67485
  0
LINE
  8
0
 10
2.9231
 20
0.67485
 11
2.93443
 21
0.623734
  0
LINE
  8
0
 10
2.93443
 20
0.623734
 11
2.94487
 21
0.572418
  0
LINE
  8
0
 10
2.94487
 20
0.572418
 11
2.95442
 21
0.520935
  0
LINE
  8
0
 10
2.95442
 20
0.520935
 11
2.96306
 21
0.469299
  0
LINE
  8
0
 10
2.96306
 20
0.469299
 11
2.97079
 21
0.417511
  0
LINE
  8
0
 10
2.97079
 20
0.417511
 11
2.97763
 21
0.365601
  0
LINE
  8
0
 10
2.97763
 20
0.365601
 11
2.98355
 21
0.313583
  0
LINE
  8
0
 10
2.98355
 20
0.313583
 11
2.98857
 21
0.261459
  0
LINE
  8
0
 10
2.98857
 20
0.261459
 11
2.99269
 21
0.209259
  0
LINE
  8
0
 10
2.99269
 20
0.209259
 11
2.99588
 21
0.156998
  0
LINE
  8
0
 10
2.99588
 20
0.156998
 11
2.99817
 21
0.104691
  0
LINE
  8
0
 10
2.99817
 20
0.104691
 11
2.99954
 21
0.0523529
  0
LINE
  8
0
 10
2.99954
 20
0.0523529
 11
3
 21
0
  0
LINE
  8
0
 10
3
 20
0
 11
2.99954
 21
-0.0523529
  0
LINE
  8
0
 10
2.99954
 20
-0.0523529
 11
2.99817
 21
-0.104691
  0
LINE
  8
0
 10
2.99817
 20
-0.104691
 11
2.99588
 21
-0.156998
  0
LINE
  8
0
 10
2.99588
 20
-0.156998
 11
2.99269
 21
-0.209259
  0
LINE
  8
0
 10
2.99269
 20
-0.209259
 11
2.98857
 21
-0.261459
  0
LINE
  8
0
 10
2.98857
 20
-0.261459
 11
2.98355
 21
-0.313583
  0
LINE
  8
0
 10
2.98355
 20
-0.313583
 11
2.97763
 21
-0.365601
  0
LINE
  8
0
 10
2.97763
 20
-0.365601
 11
2.97079
 21
-0.417511
  0
LINE
  8
0
 10
2.97079
 20
-0.417511
 11
2.96306
 21
-0.469299
  0
LINE
  8
0
 10
2.96306
 20
-0.469299
 11
2.95442
 21
-0.520935
  0
LINE
  8
0
 10
2.95442
 20
-0.520935
 11
2.94487
 21
-0.572418
  0
LINE
  8
0
 10
2.94487
 20
-0.572418
 11
2.93443
 21
-0.623734
  0
LINE
  8
0
 10
2.93443
 20
-0.623734
 11
2.9231
 21
-0.67485
  0
LINE
  8
0
 10
2.9231
 20
-0.67485
 11
2.91087
 21
-0.725754
  0
LINE
  8
0
 10
2.91087
 20
-0.725754
 11
2.89777
 21
-0.776443
  0
LINE
  8
0
 10
2.89777
 20
-0.776443
 11
2.88377
 21
-0.826904
  0
LINE
  8
0
 10
2.88377
 20
-0.826904
 11
2.86891
 21
-0.877106
  0
LINE
  8
0
 10
2.86891
 20
-0.877106
 11
2.85316
 21
-0.927048
  0
LINE
  8
0
 10
2.85316
 20
-0.927048
 11
2.83655
 21
-0.9767
  0
LINE
  8
0
 10
2.83655
 20
-0.9767
 11
2.81908
 21
-1.02605
  0
LINE
  8
0
 10
2.81908
 20
-1.02605
 11
2.80074
 21
-1.0751
  0
LINE
  8
0
 10
2.80074
 20
-1.0751
 11
2.78154
 21
-1.12381
  0
LINE
  8
0
 10
2.78154
 20
-1.12381
 11
2.76151
 21
-1.17218
  0
LINE
  8
0
 10
2.76151
 20
-1.17218
 11
2.74063
 21
-1.2202
  0
LINE
  8
0
 10
2.74063
 20
-1.2202
 11
2.71892
 21
-1.26785
  0
LINE
  8
0
 10
2.71892
 20
-1.26785
 11
2.69638
 21
-1.31511
  0
LINE
  8
0
 10
2.69638
 20
-1.31511
 11
2.67302
 21
-1.36197
  0
LINE
  8
0
 10
2.67302
 20
-1.36197
 11
2.64883
 21
-1.4084
  0
LINE
  8
0
 10
2.64883
 20
-1.4084
 11
2.62386
 21
-1.45442
  0
LINE
  8
0
 10
2.62386
 20
-1.45442
 11
2.59807
 21
-1.5
  0
LINE
  8
0
 10
2.59807
 20
-1.5
 11
2.57149
 21
-1.5451
  0
LINE
  8
0
 10
2.57149
 20
-1.5451
 11
2.54414
 21
-1.58975
  0
LINE
  8
0
 10
2.54414
 20
-1.58975
 11
2.51601
 21
-1.63391
  0
LINE
  8
0
 10
2.51601
 20
-1.63391
 11
2.48711
 21
-1.67757
  0
LINE
  8
0
 10
2.48711
 20
-1.67757
 11
2.45744
 21
-1.72072
  0
LINE
  8
0
 10
2.45744
 20
-1.72072
 11
2.42705
 21
-1.76335
  0
LINE
  8
0
 10
2.42705
 20
-1.76335
 11
2.3959
 21
-1.80544
  0
LINE
  8
0
 10
2.3959
 20
-1.80544
 11
2.36403
 21
-1.84697
  0
LINE
  8
0
 10
2.36403
 20
-1.84697
 11
2.33144
 21
-1.88795
  0
LINE
  8
0
 10
2.33144
 20
-1.88795
 11
2.29813
 21
-1.92836
  0
LINE
  8
0
 10
2.29813
 20
-1.92836
 11
2.26411
 21
-1.96817
  0
LINE
  8
0
 10
2.26411
 20
-1.96817
 11
2.22943
 21
-2.00739
  0
LINE
  8
0
 10
2.22943
 20
-2.00739
 11
2.19405
 21
-2.04599
  0
LINE
  8
0
 10
2.19405
 20
-2.04599
 11
2.158
 21
-2.08397
  0
LINE
  8
0
 10
2.158
 20
-2.08397
 11
2.12131
 21
-2.12131
  0
LINE
  8
0
 10
2.12131
 20
-2.12131
 11
2.08397
 21
-2.158
  0
LINE
  8
0
 10
2.08397
 20
-2.158
 11
2.04599
 21
-2.19405
  0
LINE
  8
0
 10
2.04599
 20
-2.19405
 11
2.00739
 21
-2.22943
  0
LINE
  8
0
 10
2.00739
 20
-2.22943
 11
1.96817
 21
-2.26411
  0
LINE
  8
0
 10
1.96817
 20
-2.26411
 11
1.92836
 21
-2.29813
  0
LINE
  8
0
 10
1.92836
 20
-2.29813
 11
1.88795
 21
-2.33144
  0
LINE
  8
0
 10
1.88795
 20
-2.33144
 11
1.84697
 21
-2.36403
  0
LINE
  8
0
 10
1.84697
 20
-2.36403
 11
1.80544
 21
-2.3959
  0
LINE
  8
0
 10
1.80544
 20
-2.3959
 11
1.76335
 21
-2.42705
  0
LINE
  8
0
 10
1.76335
 20
-2.42705
 11
1.72072
 21
-2.45744
  0
LINE
  8
0
 10
1.72072
 20
-2.45744
 11
1.67757
 21
-2.48711
  0
LINE
  8
0
 10
1.67757
 20
-2.48711
 11
1.63391
 21
-2.51601
  0
LINE
  8
0
 10
1.63391
 20
-2.51601
 11
1.58975
 21
-2.54414
  0
LINE
  8
0
 10
1.58975
 20
-2.54414
 11
1.5451
 21
-2.57149
  0
LINE
  8
0
 10
1.5451
 20
-2.57149
 11
1.5
 21
-2.59807
  0
LINE
  8
0
 10
1.5
 20
-2.59807
 11
1.45442
 21
-2.62386
  0
LINE
  8
0
 10
1.45442
 20
-2.62386
 11
1.4084
 21
-2.64883
  0
LINE
  8
0
 10
1.4084
 20
-2.64883
 11
1.36197
 21
-2.67302
  0
LINE
  8
0
 10
1.36197
 20
-2.67302
 11
1.31511
 21
-2.69638
  0
LINE
  8
0
 10
1.31511
 20
-2.69638
 11
1.30753
 21
-2.7
  0
LINE
  8
0
 10
1.30753
 20
-2.7
 11
-1.30753
 21
-2.7
  0
ENDSEC
  0
SECTION
  2
OBJECTS
  0
DICTIONARY
  0
ENDSEC
  0
EOF
