# Created by FreeCAD <http://www.freecadweb.org>
v 0.000000 62.500000 0.000000
v 0.000000 0.000000 20.000000
v 0.000000 62.500000 20.000000
v 0.000000 0.000000 0.000000
v 50.000000 0.000000 0.000000
v 50.000000 0.000000 20.000000
v 190.000000 0.000000 20.000000
v 240.000000 62.500000 20.000000
v 240.000000 0.000000 20.000000
v 240.000000 62.500000 0.000000
v 190.000000 0.000000 0.000000
v 240.000000 0.000000 0.000000
v 50.000000 -62.500000 20.000000
v 50.000000 -62.500000 0.000000
v 190.000000 -62.500000 20.000000
v 190.000000 -62.500000 0.000000
vn -1.000000 0.000000 0.000000
vn -1.000000 0.000000 0.000000
vn 0.000000 -1.000000 0.000000
vn 0.000000 -1.000000 0.000000
vn 0.000000 0.000000 1.000000
vn 0.000000 0.000000 1.000000
vn 0.000000 0.000000 1.000000
vn 0.000000 0.000000 1.000000
vn 0.000000 1.000000 0.000000
vn 0.000000 1.000000 0.000000
vn 0.000000 0.000000 -1.000000
vn 0.000000 0.000000 -1.000000
vn 0.000000 0.000000 -1.000000
vn 0.000000 0.000000 -1.000000
vn -1.000000 0.000000 0.000000
vn -1.000000 0.000000 0.000000
vn 1.000000 -0.000000 0.000000
vn 1.000000 0.000000 0.000000
vn 0.000000 0.000000 1.000000
vn 0.000000 0.000000 1.000000
vn 0.000000 -1.000000 0.000000
vn 0.000000 -1.000000 0.000000
vn 0.000000 0.000000 -1.000000
vn 0.000000 0.000000 -1.000000
vn 0.000000 -1.000000 0.000000
vn 0.000000 -1.000000 0.000000
vn 1.000000 -0.000000 0.000000
vn 1.000000 0.000000 0.000000
f 1//1 2//1 3//1
f 4//2 2//2 1//2
f 5//3 6//3 4//3
f 4//4 6//4 2//4
f 3//5 2//5 6//5
f 7//6 3//6 6//6
f 8//7 7//7 9//7
f 8//8 3//8 7//8
f 10//9 1//9 3//9
f 8//10 10//10 3//10
f 4//11 1//11 5//11
f 1//12 11//12 5//12
f 11//13 10//13 12//13
f 1//14 10//14 11//14
f 5//15 13//15 6//15
f 14//16 13//16 5//16
f 9//17 10//17 8//17
f 9//18 12//18 10//18
f 7//19 6//19 13//19
f 7//20 13//20 15//20
f 12//21 9//21 11//21
f 11//22 9//22 7//22
f 5//23 11//23 14//23
f 14//24 11//24 16//24
f 16//25 15//25 14//25
f 14//26 15//26 13//26
f 15//27 11//27 7//27
f 15//28 16//28 11//28
